solid OpenSCAD_Model
  facet normal -1 0 0
    outer loop
      vertex -4 14 0
      vertex -4 5.13137 3.6
      vertex -4 14 3.6
    endloop
  endfacet
  facet normal -1 0 0
    outer loop
      vertex -4 14 0
      vertex -4 4 2
      vertex -4 5.13137 3.6
    endloop
  endfacet
  facet normal -1 0 0
    outer loop
      vertex -4 -4 0
      vertex -4 4 2
      vertex -4 14 0
    endloop
  endfacet
  facet normal -1 -0 0
    outer loop
      vertex -4 4 2
      vertex -4 -4 0
      vertex -4 -4 2
    endloop
  endfacet
  facet normal -1 0 0
    outer loop
      vertex -4 5.13137 3.6
      vertex -4 4 2
      vertex -4 4 2.46863
    endloop
  endfacet
  facet normal 0 0 1
    outer loop
      vertex 0.799999 15.3856 3.6
      vertex 2.22228 17.3259 3.6
      vertex 1.53073 17.6955 3.6
    endloop
  endfacet
  facet normal 0 0 1
    outer loop
      vertex 2.22228 17.3259 3.6
      vertex 0.799999 15.3856 3.6
      vertex 1.6 14 3.6
    endloop
  endfacet
  facet normal 0 0 1
    outer loop
      vertex 0.780361 17.9231 3.6
      vertex 0.799999 15.3856 3.6
      vertex 1.53073 17.6955 3.6
    endloop
  endfacet
  facet normal 0 0 1
    outer loop
      vertex 0 18 3.6
      vertex 0.799999 15.3856 3.6
      vertex 0.780361 17.9231 3.6
    endloop
  endfacet
  facet normal 0 0 1
    outer loop
      vertex -0.799999 15.3856 3.6
      vertex 0 18 3.6
      vertex -0.780361 17.9231 3.6
    endloop
  endfacet
  facet normal 0 0 1
    outer loop
      vertex 0 18 3.6
      vertex -0.799999 15.3856 3.6
      vertex 0.799999 15.3856 3.6
    endloop
  endfacet
  facet normal -0 0 1
    outer loop
      vertex -1.53073 17.6955 3.6
      vertex -0.799999 15.3856 3.6
      vertex -0.780361 17.9231 3.6
    endloop
  endfacet
  facet normal -0 0 1
    outer loop
      vertex -2.22228 17.3259 3.6
      vertex -0.799999 15.3856 3.6
      vertex -1.53073 17.6955 3.6
    endloop
  endfacet
  facet normal -0 0 1
    outer loop
      vertex -2.82843 16.8284 3.6
      vertex -0.799999 15.3856 3.6
      vertex -2.22228 17.3259 3.6
    endloop
  endfacet
  facet normal 0 0 1
    outer loop
      vertex 1.6 14 3.6
      vertex 4 14 3.6
      vertex 3.92314 14.7804 3.6
    endloop
  endfacet
  facet normal 0 0 1
    outer loop
      vertex 1.6 14 3.6
      vertex 3.92314 14.7804 3.6
      vertex 3.69552 15.5307 3.6
    endloop
  endfacet
  facet normal 0 0 1
    outer loop
      vertex 1.6 14 3.6
      vertex 3.69552 15.5307 3.6
      vertex 3.32588 16.2223 3.6
    endloop
  endfacet
  facet normal 0 0 1
    outer loop
      vertex 1.6 14 3.6
      vertex 3.32588 16.2223 3.6
      vertex 2.82843 16.8284 3.6
    endloop
  endfacet
  facet normal 0 0 1
    outer loop
      vertex 1.6 14 3.6
      vertex 2.82843 16.8284 3.6
      vertex 2.22228 17.3259 3.6
    endloop
  endfacet
  facet normal 0 0 1
    outer loop
      vertex 4 14 3.6
      vertex 1.6 14 3.6
      vertex 0.799999 12.6144 3.6
    endloop
  endfacet
  facet normal 0 0 1
    outer loop
      vertex 4 14 3.6
      vertex 0.799999 12.6144 3.6
      vertex 4 5.13137 3.6
    endloop
  endfacet
  facet normal -0 0 1
    outer loop
      vertex -0.799999 12.6144 3.6
      vertex 4 5.13137 3.6
      vertex 0.799999 12.6144 3.6
    endloop
  endfacet
  facet normal -0 0 1
    outer loop
      vertex -3.32588 16.2223 3.6
      vertex -0.799999 15.3856 3.6
      vertex -2.82843 16.8284 3.6
    endloop
  endfacet
  facet normal 0 0 1
    outer loop
      vertex -0.799999 15.3856 3.6
      vertex -3.32588 16.2223 3.6
      vertex -1.6 14 3.6
    endloop
  endfacet
  facet normal -0 0 1
    outer loop
      vertex -3.69552 15.5307 3.6
      vertex -1.6 14 3.6
      vertex -3.32588 16.2223 3.6
    endloop
  endfacet
  facet normal -0 0 1
    outer loop
      vertex -3.92314 14.7804 3.6
      vertex -1.6 14 3.6
      vertex -3.69552 15.5307 3.6
    endloop
  endfacet
  facet normal 0 0 1
    outer loop
      vertex -4 14 3.6
      vertex -1.6 14 3.6
      vertex -3.92314 14.7804 3.6
    endloop
  endfacet
  facet normal 0 0 1
    outer loop
      vertex -1.6 14 3.6
      vertex -4 14 3.6
      vertex -0.799999 12.6144 3.6
    endloop
  endfacet
  facet normal 0 0 1
    outer loop
      vertex -4 5.13137 3.6
      vertex -0.799999 12.6144 3.6
      vertex -4 14 3.6
    endloop
  endfacet
  facet normal 0 0 1
    outer loop
      vertex -0.799999 12.6144 3.6
      vertex -4 5.13137 3.6
      vertex 4 5.13137 3.6
    endloop
  endfacet
  facet normal 1 -0 0
    outer loop
      vertex 4 5.13137 3.6
      vertex 4 14 0
      vertex 4 14 3.6
    endloop
  endfacet
  facet normal 1 0 0
    outer loop
      vertex 4 4 2
      vertex 4 5.13137 3.6
      vertex 4 4 2.46863
    endloop
  endfacet
  facet normal 1 0 0
    outer loop
      vertex 4 5.13137 3.6
      vertex 4 4 2
      vertex 4 14 0
    endloop
  endfacet
  facet normal 1 0 0
    outer loop
      vertex 4 -4 0
      vertex 4 4 2
      vertex 4 -4 2
    endloop
  endfacet
  facet normal 1 0 0
    outer loop
      vertex 4 4 2
      vertex 4 -4 0
      vertex 4 14 0
    endloop
  endfacet
  facet normal 0 0 -1
    outer loop
      vertex -1.80194 0 0
      vertex -2.1 0 0
      vertex -1.80194 0.867767 0
    endloop
  endfacet
  facet normal 0 0 -1
    outer loop
      vertex -4 -4 0
      vertex -2.1 0 0
      vertex -2.1 -4 0
    endloop
  endfacet
  facet normal 0 0 -1
    outer loop
      vertex -2.1 0 0
      vertex -4 14 0
      vertex -2.22228 17.3259 0
    endloop
  endfacet
  facet normal 0 0 -1
    outer loop
      vertex -2.22228 17.3259 0
      vertex -4 14 0
      vertex -2.82843 16.8284 0
    endloop
  endfacet
  facet normal 0 0 -1
    outer loop
      vertex -2.82843 16.8284 0
      vertex -4 14 0
      vertex -3.32588 16.2223 0
    endloop
  endfacet
  facet normal 0 0 -1
    outer loop
      vertex -3.32588 16.2223 0
      vertex -4 14 0
      vertex -3.69552 15.5307 0
    endloop
  endfacet
  facet normal -0 0 -1
    outer loop
      vertex -2.1 0 0
      vertex -4 -4 0
      vertex -4 14 0
    endloop
  endfacet
  facet normal 0 0 -1
    outer loop
      vertex -3.69552 15.5307 0
      vertex -4 14 0
      vertex -3.92314 14.7804 0
    endloop
  endfacet
  facet normal 0 0 -1
    outer loop
      vertex 0.799999 12.6144 0
      vertex 4 14 0
      vertex 1.24698 1.56366 0
    endloop
  endfacet
  facet normal -0 0 -1
    outer loop
      vertex 4 14 0
      vertex 0.799999 12.6144 0
      vertex 1.6 14 0
    endloop
  endfacet
  facet normal 0 0 -1
    outer loop
      vertex -0.445042 1.94986 0
      vertex 0.799999 12.6144 0
      vertex 1.24698 1.56366 0
    endloop
  endfacet
  facet normal 0 0 -1
    outer loop
      vertex -0.445042 1.94986 0
      vertex -0.799999 12.6144 0
      vertex 0.799999 12.6144 0
    endloop
  endfacet
  facet normal 0 0 -1
    outer loop
      vertex -1.80194 0.867767 0
      vertex -0.799999 12.6144 0
      vertex -0.445042 1.94986 0
    endloop
  endfacet
  facet normal -0 0 -1
    outer loop
      vertex -0.799999 12.6144 0
      vertex -1.80194 0.867767 0
      vertex -1.6 14 0
    endloop
  endfacet
  facet normal 0 0 -1
    outer loop
      vertex 2.1 0 0
      vertex 4 14 0
      vertex 4 -4 0
    endloop
  endfacet
  facet normal 0 0 -1
    outer loop
      vertex 1.24698 1.56366 0
      vertex 4 14 0
      vertex 2.1 0 0
    endloop
  endfacet
  facet normal 0 0 -1
    outer loop
      vertex 4 14 0
      vertex 1.6 14 0
      vertex 3.92314 14.7804 0
    endloop
  endfacet
  facet normal -0 0 -1
    outer loop
      vertex 3.92314 14.7804 0
      vertex 1.6 14 0
      vertex 3.69552 15.5307 0
    endloop
  endfacet
  facet normal -0 0 -1
    outer loop
      vertex 3.69552 15.5307 0
      vertex 1.6 14 0
      vertex 3.32588 16.2223 0
    endloop
  endfacet
  facet normal 0 0 -1
    outer loop
      vertex 2.1 0 0
      vertex 4 -4 0
      vertex 2.1 -4 0
    endloop
  endfacet
  facet normal 0 0 -1
    outer loop
      vertex 0.799999 15.3856 0
      vertex 3.32588 16.2223 0
      vertex 1.6 14 0
    endloop
  endfacet
  facet normal 0 0 -1
    outer loop
      vertex 1.24698 1.56366 0
      vertex 2.1 0 0
      vertex 2 0 0
    endloop
  endfacet
  facet normal -0 0 -1
    outer loop
      vertex 3.32588 16.2223 0
      vertex 0.799999 15.3856 0
      vertex 2.82843 16.8284 0
    endloop
  endfacet
  facet normal -0 0 -1
    outer loop
      vertex 2.82843 16.8284 0
      vertex 0.799999 15.3856 0
      vertex 2.22228 17.3259 0
    endloop
  endfacet
  facet normal -0 0 -1
    outer loop
      vertex 2.22228 17.3259 0
      vertex 0.799999 15.3856 0
      vertex 1.53073 17.6955 0
    endloop
  endfacet
  facet normal 0 0 -1
    outer loop
      vertex 0.799999 15.3856 0
      vertex 0.780361 17.9231 0
      vertex 1.53073 17.6955 0
    endloop
  endfacet
  facet normal 0 0 -1
    outer loop
      vertex 0.799999 15.3856 0
      vertex 0 18 0
      vertex 0.780361 17.9231 0
    endloop
  endfacet
  facet normal 0 0 -1
    outer loop
      vertex -0.799999 15.3856 0
      vertex 0 18 0
      vertex 0.799999 15.3856 0
    endloop
  endfacet
  facet normal 0 0 -1
    outer loop
      vertex 0 18 0
      vertex -0.799999 15.3856 0
      vertex -0.780361 17.9231 0
    endloop
  endfacet
  facet normal 0 0 -1
    outer loop
      vertex -0.799999 15.3856 0
      vertex -1.53073 17.6955 0
      vertex -0.780361 17.9231 0
    endloop
  endfacet
  facet normal 0 0 -1
    outer loop
      vertex -2.22228 17.3259 0
      vertex -0.799999 15.3856 0
      vertex -1.6 14 0
    endloop
  endfacet
  facet normal 0 0 -1
    outer loop
      vertex -2.1 0 0
      vertex -1.6 14 0
      vertex -1.80194 0.867767 0
    endloop
  endfacet
  facet normal 0 0 -1
    outer loop
      vertex -2.22228 17.3259 0
      vertex -1.6 14 0
      vertex -2.1 0 0
    endloop
  endfacet
  facet normal 0 0 -1
    outer loop
      vertex -0.799999 15.3856 0
      vertex -2.22228 17.3259 0
      vertex -1.53073 17.6955 0
    endloop
  endfacet
  facet normal 0 -1 0
    outer loop
      vertex -4 -4 0
      vertex -2.1 -4 2
      vertex -4 -4 2
    endloop
  endfacet
  facet normal 0 -1 -0
    outer loop
      vertex -2.1 -4 2
      vertex -4 -4 0
      vertex -2.1 -4 0
    endloop
  endfacet
  facet normal 0 -1 0
    outer loop
      vertex 2.1 -4 0
      vertex 4 -4 2
      vertex 2.1 -4 2
    endloop
  endfacet
  facet normal 0 -1 -0
    outer loop
      vertex 4 -4 2
      vertex 2.1 -4 0
      vertex 4 -4 0
    endloop
  endfacet
  facet normal 0.995185 0.0980179 0
    outer loop
      vertex 4 14 3.6
      vertex 3.92314 14.7804 0
      vertex 3.92314 14.7804 3.6
    endloop
  endfacet
  facet normal 0.995185 0.0980179 0
    outer loop
      vertex 3.92314 14.7804 0
      vertex 4 14 3.6
      vertex 4 14 0
    endloop
  endfacet
  facet normal -0.0980167 0.995185 0
    outer loop
      vertex 0 18 0
      vertex -0.780361 17.9231 3.6
      vertex 0 18 3.6
    endloop
  endfacet
  facet normal -0.0980167 0.995185 0
    outer loop
      vertex -0.780361 17.9231 3.6
      vertex 0 18 0
      vertex -0.780361 17.9231 0
    endloop
  endfacet
  facet normal 0.634394 0.77301 -0
    outer loop
      vertex 2.82843 16.8284 0
      vertex 2.22228 17.3259 3.6
      vertex 2.82843 16.8284 3.6
    endloop
  endfacet
  facet normal 0.634394 0.77301 0
    outer loop
      vertex 2.22228 17.3259 3.6
      vertex 2.82843 16.8284 0
      vertex 2.22228 17.3259 0
    endloop
  endfacet
  facet normal -0.77301 0.634394 0
    outer loop
      vertex -3.32588 16.2223 0
      vertex -2.82843 16.8284 3.6
      vertex -2.82843 16.8284 0
    endloop
  endfacet
  facet normal -0.77301 0.634394 0
    outer loop
      vertex -2.82843 16.8284 3.6
      vertex -3.32588 16.2223 0
      vertex -3.32588 16.2223 3.6
    endloop
  endfacet
  facet normal -0.471397 0.881921 0
    outer loop
      vertex -1.53073 17.6955 0
      vertex -2.22228 17.3259 3.6
      vertex -1.53073 17.6955 3.6
    endloop
  endfacet
  facet normal -0.471397 0.881921 0
    outer loop
      vertex -2.22228 17.3259 3.6
      vertex -1.53073 17.6955 0
      vertex -2.22228 17.3259 0
    endloop
  endfacet
  facet normal 0.881921 0.471396 0
    outer loop
      vertex 3.69552 15.5307 3.6
      vertex 3.32588 16.2223 0
      vertex 3.32588 16.2223 3.6
    endloop
  endfacet
  facet normal 0.881921 0.471396 0
    outer loop
      vertex 3.32588 16.2223 0
      vertex 3.69552 15.5307 3.6
      vertex 3.69552 15.5307 0
    endloop
  endfacet
  facet normal 0.95694 0.290285 0
    outer loop
      vertex 3.92314 14.7804 3.6
      vertex 3.69552 15.5307 0
      vertex 3.69552 15.5307 3.6
    endloop
  endfacet
  facet normal 0.95694 0.290285 0
    outer loop
      vertex 3.69552 15.5307 0
      vertex 3.92314 14.7804 3.6
      vertex 3.92314 14.7804 0
    endloop
  endfacet
  facet normal 0.77301 0.634394 0
    outer loop
      vertex 3.32588 16.2223 3.6
      vertex 2.82843 16.8284 0
      vertex 2.82843 16.8284 3.6
    endloop
  endfacet
  facet normal 0.77301 0.634394 0
    outer loop
      vertex 2.82843 16.8284 0
      vertex 3.32588 16.2223 3.6
      vertex 3.32588 16.2223 0
    endloop
  endfacet
  facet normal 0.290285 0.95694 -0
    outer loop
      vertex 1.53073 17.6955 0
      vertex 0.780361 17.9231 3.6
      vertex 1.53073 17.6955 3.6
    endloop
  endfacet
  facet normal 0.290285 0.95694 0
    outer loop
      vertex 0.780361 17.9231 3.6
      vertex 1.53073 17.6955 0
      vertex 0.780361 17.9231 0
    endloop
  endfacet
  facet normal 0.0980167 0.995185 -0
    outer loop
      vertex 0.780361 17.9231 0
      vertex 0 18 3.6
      vertex 0.780361 17.9231 3.6
    endloop
  endfacet
  facet normal 0.0980167 0.995185 0
    outer loop
      vertex 0 18 3.6
      vertex 0.780361 17.9231 0
      vertex 0 18 0
    endloop
  endfacet
  facet normal 0.471397 0.881921 -0
    outer loop
      vertex 2.22228 17.3259 0
      vertex 1.53073 17.6955 3.6
      vertex 2.22228 17.3259 3.6
    endloop
  endfacet
  facet normal 0.471397 0.881921 0
    outer loop
      vertex 1.53073 17.6955 3.6
      vertex 2.22228 17.3259 0
      vertex 1.53073 17.6955 0
    endloop
  endfacet
  facet normal -0.95694 0.290285 0
    outer loop
      vertex -3.92314 14.7804 0
      vertex -3.69552 15.5307 3.6
      vertex -3.69552 15.5307 0
    endloop
  endfacet
  facet normal -0.95694 0.290285 0
    outer loop
      vertex -3.69552 15.5307 3.6
      vertex -3.92314 14.7804 0
      vertex -3.92314 14.7804 3.6
    endloop
  endfacet
  facet normal -0.881921 0.471396 0
    outer loop
      vertex -3.69552 15.5307 0
      vertex -3.32588 16.2223 3.6
      vertex -3.32588 16.2223 0
    endloop
  endfacet
  facet normal -0.881921 0.471396 0
    outer loop
      vertex -3.32588 16.2223 3.6
      vertex -3.69552 15.5307 0
      vertex -3.69552 15.5307 3.6
    endloop
  endfacet
  facet normal -0.995185 0.0980179 0
    outer loop
      vertex -4 14 0
      vertex -3.92314 14.7804 3.6
      vertex -3.92314 14.7804 0
    endloop
  endfacet
  facet normal -0.995185 0.0980179 0
    outer loop
      vertex -3.92314 14.7804 3.6
      vertex -4 14 0
      vertex -4 14 3.6
    endloop
  endfacet
  facet normal -0.634394 0.77301 0
    outer loop
      vertex -2.22228 17.3259 0
      vertex -2.82843 16.8284 3.6
      vertex -2.22228 17.3259 3.6
    endloop
  endfacet
  facet normal -0.634394 0.77301 0
    outer loop
      vertex -2.82843 16.8284 3.6
      vertex -2.22228 17.3259 0
      vertex -2.82843 16.8284 0
    endloop
  endfacet
  facet normal -0.290285 0.95694 0
    outer loop
      vertex -0.780361 17.9231 0
      vertex -1.53073 17.6955 3.6
      vertex -0.780361 17.9231 3.6
    endloop
  endfacet
  facet normal -0.290285 0.95694 0
    outer loop
      vertex -1.53073 17.6955 3.6
      vertex -0.780361 17.9231 0
      vertex -1.53073 17.6955 0
    endloop
  endfacet
  facet normal -0.900969 -0.433884 0
    outer loop
      vertex 2 0 0
      vertex 1.24698 1.56366 2
      vertex 1.24698 1.56366 0
    endloop
  endfacet
  facet normal -0.900969 -0.433884 0
    outer loop
      vertex 1.24698 1.56366 2
      vertex 2 0 0
      vertex 2 0 2
    endloop
  endfacet
  facet normal 1 -0 0
    outer loop
      vertex -1.80194 0 2
      vertex -1.80194 0.867767 0
      vertex -1.80194 0.867767 2
    endloop
  endfacet
  facet normal 1 0 0
    outer loop
      vertex -1.80194 0.867767 0
      vertex -1.80194 0 2
      vertex -1.80194 0 0
    endloop
  endfacet
  facet normal -0.222521 -0.974928 0
    outer loop
      vertex -0.445042 1.94986 0
      vertex 1.24698 1.56366 2
      vertex -0.445042 1.94986 2
    endloop
  endfacet
  facet normal -0.222521 -0.974928 -0
    outer loop
      vertex 1.24698 1.56366 2
      vertex -0.445042 1.94986 0
      vertex 1.24698 1.56366 0
    endloop
  endfacet
  facet normal 0.62349 -0.781831 0
    outer loop
      vertex -1.80194 0.867767 0
      vertex -0.445042 1.94986 2
      vertex -1.80194 0.867767 2
    endloop
  endfacet
  facet normal 0.62349 -0.781831 0
    outer loop
      vertex -0.445042 1.94986 2
      vertex -1.80194 0.867767 0
      vertex -0.445042 1.94986 0
    endloop
  endfacet
  facet normal 1 -0 0
    outer loop
      vertex -2.1 -4 2
      vertex -2.1 0 0
      vertex -2.1 0 2
    endloop
  endfacet
  facet normal 1 0 0
    outer loop
      vertex -2.1 0 0
      vertex -2.1 -4 2
      vertex -2.1 -4 0
    endloop
  endfacet
  facet normal -1 0 0
    outer loop
      vertex 2.1 -4 0
      vertex 2.1 0 2
      vertex 2.1 0 0
    endloop
  endfacet
  facet normal -1 -0 0
    outer loop
      vertex 2.1 0 2
      vertex 2.1 -4 0
      vertex 2.1 -4 2
    endloop
  endfacet
  facet normal 0 -1 0
    outer loop
      vertex 2 0 0
      vertex 2.1 0 2
      vertex 2 0 2
    endloop
  endfacet
  facet normal 0 -1 -0
    outer loop
      vertex 2.1 0 2
      vertex 2 0 0
      vertex 2.1 0 0
    endloop
  endfacet
  facet normal 0 -1 0
    outer loop
      vertex -2.1 0 0
      vertex -1.80194 0 2
      vertex -2.1 0 2
    endloop
  endfacet
  facet normal 0 -1 -0
    outer loop
      vertex -1.80194 0 2
      vertex -2.1 0 0
      vertex -1.80194 0 0
    endloop
  endfacet
  facet normal -0.866025 -0.5 0
    outer loop
      vertex 1.6 14 0
      vertex 0.799999 15.3856 3.6
      vertex 0.799999 15.3856 0
    endloop
  endfacet
  facet normal -0.866025 -0.5 0
    outer loop
      vertex 0.799999 15.3856 3.6
      vertex 1.6 14 0
      vertex 1.6 14 3.6
    endloop
  endfacet
  facet normal 0.866025 -0.5 0
    outer loop
      vertex -1.6 14 3.6
      vertex -0.799999 15.3856 0
      vertex -0.799999 15.3856 3.6
    endloop
  endfacet
  facet normal 0.866025 -0.5 0
    outer loop
      vertex -0.799999 15.3856 0
      vertex -1.6 14 3.6
      vertex -1.6 14 0
    endloop
  endfacet
  facet normal 0 -1 0
    outer loop
      vertex -0.799999 15.3856 0
      vertex 0.799999 15.3856 3.6
      vertex -0.799999 15.3856 3.6
    endloop
  endfacet
  facet normal 0 -1 -0
    outer loop
      vertex 0.799999 15.3856 3.6
      vertex -0.799999 15.3856 0
      vertex 0.799999 15.3856 0
    endloop
  endfacet
  facet normal 0.866025 0.5 0
    outer loop
      vertex -0.799999 12.6144 3.6
      vertex -1.6 14 0
      vertex -1.6 14 3.6
    endloop
  endfacet
  facet normal 0.866025 0.5 0
    outer loop
      vertex -1.6 14 0
      vertex -0.799999 12.6144 3.6
      vertex -0.799999 12.6144 0
    endloop
  endfacet
  facet normal -0.866025 0.5 0
    outer loop
      vertex 0.799999 12.6144 0
      vertex 1.6 14 3.6
      vertex 1.6 14 0
    endloop
  endfacet
  facet normal -0.866025 0.5 0
    outer loop
      vertex 1.6 14 3.6
      vertex 0.799999 12.6144 0
      vertex 0.799999 12.6144 3.6
    endloop
  endfacet
  facet normal 0 1 -0
    outer loop
      vertex 0.799999 12.6144 0
      vertex -0.799999 12.6144 3.6
      vertex 0.799999 12.6144 3.6
    endloop
  endfacet
  facet normal 0 1 0
    outer loop
      vertex -0.799999 12.6144 3.6
      vertex 0.799999 12.6144 0
      vertex -0.799999 12.6144 0
    endloop
  endfacet
  facet normal 0 0 1
    outer loop
      vertex 4 4 2
      vertex 2.1 0 2
      vertex 4 -4 2
    endloop
  endfacet
  facet normal -0 0 1
    outer loop
      vertex 1.24698 1.56366 2
      vertex 2.1 0 2
      vertex 4 4 2
    endloop
  endfacet
  facet normal 0 0 1
    outer loop
      vertex 2.1 0 2
      vertex 1.24698 1.56366 2
      vertex 2 0 2
    endloop
  endfacet
  facet normal 0 0 1
    outer loop
      vertex 4 4 2
      vertex -0.445042 1.94986 2
      vertex 1.24698 1.56366 2
    endloop
  endfacet
  facet normal 0 0 1
    outer loop
      vertex -1.80194 0.867767 2
      vertex -2.1 0 2
      vertex -1.80194 0 2
    endloop
  endfacet
  facet normal -0 0 1
    outer loop
      vertex -4 4 2
      vertex -0.445042 1.94986 2
      vertex 4 4 2
    endloop
  endfacet
  facet normal 0 0 1
    outer loop
      vertex -4 4 2
      vertex -1.80194 0.867767 2
      vertex -0.445042 1.94986 2
    endloop
  endfacet
  facet normal 0 0 1
    outer loop
      vertex -4 4 2
      vertex -2.1 0 2
      vertex -1.80194 0.867767 2
    endloop
  endfacet
  facet normal 0 0 1
    outer loop
      vertex -4 -4 2
      vertex -2.1 0 2
      vertex -4 4 2
    endloop
  endfacet
  facet normal 0 0 1
    outer loop
      vertex -2.1 0 2
      vertex -4 -4 2
      vertex -2.1 -4 2
    endloop
  endfacet
  facet normal 0 0 1
    outer loop
      vertex 4 -4 2
      vertex 2.1 0 2
      vertex 2.1 -4 2
    endloop
  endfacet
  facet normal 0 -1 0
    outer loop
      vertex -4 4 2
      vertex 4 4 2.46863
      vertex -4 4 2.46863
    endloop
  endfacet
  facet normal 0 -1 -0
    outer loop
      vertex 4 4 2.46863
      vertex -4 4 2
      vertex 4 4 2
    endloop
  endfacet
  facet normal 0 -0.707107 0.707107
    outer loop
      vertex -4 4 2.46863
      vertex 4 5.13137 3.6
      vertex -4 5.13137 3.6
    endloop
  endfacet
  facet normal 0 -0.707107 0.707107
    outer loop
      vertex 4 5.13137 3.6
      vertex -4 4 2.46863
      vertex 4 4 2.46863
    endloop
  endfacet
endsolid OpenSCAD_Model
