solid OpenSCAD_Model
  facet normal 0.994522 0.104529 0
    outer loop
      vertex 10.75 0 2
      vertex 10.5151 2.23505 0
      vertex 10.5151 2.23505 2
    endloop
  endfacet
  facet normal 0.994522 0.104529 0
    outer loop
      vertex 10.5151 2.23505 0
      vertex 10.75 0 2
      vertex 10.75 0 0
    endloop
  endfacet
  facet normal -0.994522 0.104529 0
    outer loop
      vertex -10.75 0 0
      vertex -10.5151 2.23505 2
      vertex -10.5151 2.23505 0
    endloop
  endfacet
  facet normal -0.994522 0.104529 0
    outer loop
      vertex -10.5151 2.23505 2
      vertex -10.75 0 0
      vertex -10.75 0 2
    endloop
  endfacet
  facet normal 0 1 -0
    outer loop
      vertex 1.12368 10.6911 0
      vertex -1.12368 10.6911 2
      vertex 1.12368 10.6911 2
    endloop
  endfacet
  facet normal 0 1 0
    outer loop
      vertex -1.12368 10.6911 2
      vertex 1.12368 10.6911 0
      vertex -1.12368 10.6911 0
    endloop
  endfacet
  facet normal 0.743145 0.669131 0
    outer loop
      vertex 8.69693 6.31869 2
      vertex 7.19315 7.98881 0
      vertex 7.19315 7.98881 2
    endloop
  endfacet
  facet normal 0.743145 0.669131 0
    outer loop
      vertex 7.19315 7.98881 0
      vertex 8.69693 6.31869 2
      vertex 8.69693 6.31869 0
    endloop
  endfacet
  facet normal -0.587785 0.809017 0
    outer loop
      vertex -5.375 9.30977 0
      vertex -7.19315 7.98881 2
      vertex -5.375 9.30977 2
    endloop
  endfacet
  facet normal -0.587785 0.809017 0
    outer loop
      vertex -7.19315 7.98881 2
      vertex -5.375 9.30977 0
      vertex -7.19315 7.98881 0
    endloop
  endfacet
  facet normal -0.207912 0.978148 0
    outer loop
      vertex -1.12368 10.6911 0
      vertex -3.32193 10.2239 2
      vertex -1.12368 10.6911 2
    endloop
  endfacet
  facet normal -0.207912 0.978148 0
    outer loop
      vertex -3.32193 10.2239 2
      vertex -1.12368 10.6911 0
      vertex -3.32193 10.2239 0
    endloop
  endfacet
  facet normal 0.866025 0.5 0
    outer loop
      vertex 9.82061 4.37242 2
      vertex 8.69693 6.31869 0
      vertex 8.69693 6.31869 2
    endloop
  endfacet
  facet normal 0.866025 0.5 0
    outer loop
      vertex 8.69693 6.31869 0
      vertex 9.82061 4.37242 2
      vertex 9.82061 4.37242 0
    endloop
  endfacet
  facet normal 0.951056 0.309017 0
    outer loop
      vertex 10.5151 2.23505 2
      vertex 9.82061 4.37242 0
      vertex 9.82061 4.37242 2
    endloop
  endfacet
  facet normal 0.951056 0.309017 0
    outer loop
      vertex 9.82061 4.37242 0
      vertex 10.5151 2.23505 2
      vertex 10.5151 2.23505 0
    endloop
  endfacet
  facet normal 0.406736 0.913546 -0
    outer loop
      vertex 5.375 9.30977 0
      vertex 3.32193 10.2239 2
      vertex 5.375 9.30977 2
    endloop
  endfacet
  facet normal 0.406736 0.913546 0
    outer loop
      vertex 3.32193 10.2239 2
      vertex 5.375 9.30977 0
      vertex 3.32193 10.2239 0
    endloop
  endfacet
  facet normal 0.207912 0.978148 -0
    outer loop
      vertex 3.32193 10.2239 0
      vertex 1.12368 10.6911 2
      vertex 3.32193 10.2239 2
    endloop
  endfacet
  facet normal 0.207912 0.978148 0
    outer loop
      vertex 1.12368 10.6911 2
      vertex 3.32193 10.2239 0
      vertex 1.12368 10.6911 0
    endloop
  endfacet
  facet normal 0.587785 0.809017 -0
    outer loop
      vertex 7.19315 7.98881 0
      vertex 5.375 9.30977 2
      vertex 7.19315 7.98881 2
    endloop
  endfacet
  facet normal 0.587785 0.809017 0
    outer loop
      vertex 5.375 9.30977 2
      vertex 7.19315 7.98881 0
      vertex 5.375 9.30977 0
    endloop
  endfacet
  facet normal -0.866025 0.5 0
    outer loop
      vertex -9.82061 4.37242 0
      vertex -8.69693 6.31869 2
      vertex -8.69693 6.31869 0
    endloop
  endfacet
  facet normal -0.866025 0.5 0
    outer loop
      vertex -8.69693 6.31869 2
      vertex -9.82061 4.37242 0
      vertex -9.82061 4.37242 2
    endloop
  endfacet
  facet normal -0.743145 0.669131 0
    outer loop
      vertex -8.69693 6.31869 0
      vertex -7.19315 7.98881 2
      vertex -7.19315 7.98881 0
    endloop
  endfacet
  facet normal -0.743145 0.669131 0
    outer loop
      vertex -7.19315 7.98881 2
      vertex -8.69693 6.31869 0
      vertex -8.69693 6.31869 2
    endloop
  endfacet
  facet normal -0.951056 0.309017 0
    outer loop
      vertex -10.5151 2.23505 0
      vertex -9.82061 4.37242 2
      vertex -9.82061 4.37242 0
    endloop
  endfacet
  facet normal -0.951056 0.309017 0
    outer loop
      vertex -9.82061 4.37242 2
      vertex -10.5151 2.23505 0
      vertex -10.5151 2.23505 2
    endloop
  endfacet
  facet normal 0 0 1
    outer loop
      vertex 9.75 0 2
      vertex 10.75 0 2
      vertex 10.5151 2.23505 2
    endloop
  endfacet
  facet normal 0 0 1
    outer loop
      vertex 9.53694 2.02714 2
      vertex 10.5151 2.23505 2
      vertex 9.82061 4.37242 2
    endloop
  endfacet
  facet normal 0 0 1
    outer loop
      vertex 10.75 0 2
      vertex 9.75 0 2
      vertex 10.5151 -2.23505 2
    endloop
  endfacet
  facet normal -0 0 1
    outer loop
      vertex 9.53694 -2.02714 2
      vertex 10.5151 -2.23505 2
      vertex 9.75 0 2
    endloop
  endfacet
  facet normal 0 0 1
    outer loop
      vertex 10.5151 2.23505 2
      vertex 9.53694 2.02714 2
      vertex 9.75 0 2
    endloop
  endfacet
  facet normal 0 0 1
    outer loop
      vertex 9.82061 4.37242 2
      vertex 8.90707 3.96568 2
      vertex 9.53694 2.02714 2
    endloop
  endfacet
  facet normal 0 0 1
    outer loop
      vertex 8.69693 6.31869 2
      vertex 8.90707 3.96568 2
      vertex 9.82061 4.37242 2
    endloop
  endfacet
  facet normal 0 0 1
    outer loop
      vertex 8.69693 6.31869 2
      vertex 7.88792 5.73091 2
      vertex 8.90707 3.96568 2
    endloop
  endfacet
  facet normal 0 0 1
    outer loop
      vertex 7.19315 7.98881 2
      vertex 7.88792 5.73091 2
      vertex 8.69693 6.31869 2
    endloop
  endfacet
  facet normal 0 0 1
    outer loop
      vertex 7.19315 7.98881 2
      vertex 6.52402 7.24566 2
      vertex 7.88792 5.73091 2
    endloop
  endfacet
  facet normal 0 0 1
    outer loop
      vertex 5.375 9.30977 2
      vertex 6.52402 7.24566 2
      vertex 7.19315 7.98881 2
    endloop
  endfacet
  facet normal 0 0 1
    outer loop
      vertex 5.375 9.30977 2
      vertex 4.875 8.44375 2
      vertex 6.52402 7.24566 2
    endloop
  endfacet
  facet normal 0 0 1
    outer loop
      vertex 3.32193 10.2239 2
      vertex 4.875 8.44375 2
      vertex 5.375 9.30977 2
    endloop
  endfacet
  facet normal 0 0 1
    outer loop
      vertex 3.32193 10.2239 2
      vertex 3.01292 9.2728 2
      vertex 4.875 8.44375 2
    endloop
  endfacet
  facet normal 0 0 1
    outer loop
      vertex 1.12368 10.6911 2
      vertex 3.01292 9.2728 2
      vertex 3.32193 10.2239 2
    endloop
  endfacet
  facet normal 0 0 1
    outer loop
      vertex 1.12368 10.6911 2
      vertex 1.01915 9.69659 2
      vertex 3.01292 9.2728 2
    endloop
  endfacet
  facet normal 0 0 1
    outer loop
      vertex 1.12368 10.6911 2
      vertex -1.01915 9.69659 2
      vertex 1.01915 9.69659 2
    endloop
  endfacet
  facet normal -0 0 1
    outer loop
      vertex -1.12368 10.6911 2
      vertex -1.01915 9.69659 2
      vertex 1.12368 10.6911 2
    endloop
  endfacet
  facet normal 0 0 1
    outer loop
      vertex -1.12368 10.6911 2
      vertex -3.01292 9.2728 2
      vertex -1.01915 9.69659 2
    endloop
  endfacet
  facet normal -0 0 1
    outer loop
      vertex -3.32193 10.2239 2
      vertex -3.01292 9.2728 2
      vertex -1.12368 10.6911 2
    endloop
  endfacet
  facet normal 0 0 1
    outer loop
      vertex -3.32193 10.2239 2
      vertex -4.875 8.44375 2
      vertex -3.01292 9.2728 2
    endloop
  endfacet
  facet normal -0 0 1
    outer loop
      vertex -5.375 9.30977 2
      vertex -4.875 8.44375 2
      vertex -3.32193 10.2239 2
    endloop
  endfacet
  facet normal 0 0 1
    outer loop
      vertex -5.375 9.30977 2
      vertex -6.52402 7.24566 2
      vertex -4.875 8.44375 2
    endloop
  endfacet
  facet normal -0 0 1
    outer loop
      vertex -7.19315 7.98881 2
      vertex -6.52402 7.24566 2
      vertex -5.375 9.30977 2
    endloop
  endfacet
  facet normal 0 0 1
    outer loop
      vertex -7.19315 7.98881 2
      vertex -7.88792 5.73091 2
      vertex -6.52402 7.24566 2
    endloop
  endfacet
  facet normal -0 0 1
    outer loop
      vertex -8.69693 6.31869 2
      vertex -7.88792 5.73091 2
      vertex -7.19315 7.98881 2
    endloop
  endfacet
  facet normal 0 0 1
    outer loop
      vertex -8.69693 6.31869 2
      vertex -8.90707 3.96568 2
      vertex -7.88792 5.73091 2
    endloop
  endfacet
  facet normal -0 0 1
    outer loop
      vertex -9.82061 4.37242 2
      vertex -8.90707 3.96568 2
      vertex -8.69693 6.31869 2
    endloop
  endfacet
  facet normal -0 0 1
    outer loop
      vertex -10.5151 2.23505 2
      vertex -9.53694 2.02714 2
      vertex -9.82061 4.37242 2
    endloop
  endfacet
  facet normal 0 0 1
    outer loop
      vertex -8.90707 3.96568 2
      vertex -9.82061 4.37242 2
      vertex -9.53694 2.02714 2
    endloop
  endfacet
  facet normal 0 0 1
    outer loop
      vertex 10.5151 -2.23505 2
      vertex 9.53694 -2.02714 2
      vertex 9.82061 -4.37242 2
    endloop
  endfacet
  facet normal -0 0 1
    outer loop
      vertex 8.90707 -3.96568 2
      vertex 9.82061 -4.37242 2
      vertex 9.53694 -2.02714 2
    endloop
  endfacet
  facet normal 0 0 1
    outer loop
      vertex 8.90707 -3.96568 2
      vertex 8.69693 -6.31869 2
      vertex 9.82061 -4.37242 2
    endloop
  endfacet
  facet normal -0 0 1
    outer loop
      vertex 7.88792 -5.73091 2
      vertex 8.69693 -6.31869 2
      vertex 8.90707 -3.96568 2
    endloop
  endfacet
  facet normal 0 0 1
    outer loop
      vertex 7.88792 -5.73091 2
      vertex 7.19315 -7.98881 2
      vertex 8.69693 -6.31869 2
    endloop
  endfacet
  facet normal -0 0 1
    outer loop
      vertex 6.52402 -7.24566 2
      vertex 7.19315 -7.98881 2
      vertex 7.88792 -5.73091 2
    endloop
  endfacet
  facet normal 0 0 1
    outer loop
      vertex 6.52402 -7.24566 2
      vertex 5.375 -9.30977 2
      vertex 7.19315 -7.98881 2
    endloop
  endfacet
  facet normal -0 0 1
    outer loop
      vertex 4.875 -8.44375 2
      vertex 5.375 -9.30977 2
      vertex 6.52402 -7.24566 2
    endloop
  endfacet
  facet normal 0 0 1
    outer loop
      vertex 4.875 -8.44375 2
      vertex 3.32193 -10.2239 2
      vertex 5.375 -9.30977 2
    endloop
  endfacet
  facet normal -0 0 1
    outer loop
      vertex 3.01292 -9.2728 2
      vertex 3.32193 -10.2239 2
      vertex 4.875 -8.44375 2
    endloop
  endfacet
  facet normal 0 0 1
    outer loop
      vertex 3.01292 -9.2728 2
      vertex 1.12368 -10.6911 2
      vertex 3.32193 -10.2239 2
    endloop
  endfacet
  facet normal -0 0 1
    outer loop
      vertex 1.01915 -9.69659 2
      vertex 1.12368 -10.6911 2
      vertex 3.01292 -9.2728 2
    endloop
  endfacet
  facet normal -0 0 1
    outer loop
      vertex -1.01915 -9.69659 2
      vertex 1.12368 -10.6911 2
      vertex 1.01915 -9.69659 2
    endloop
  endfacet
  facet normal 0 0 1
    outer loop
      vertex -1.01915 -9.69659 2
      vertex -1.12368 -10.6911 2
      vertex 1.12368 -10.6911 2
    endloop
  endfacet
  facet normal 0 0 1
    outer loop
      vertex -3.01292 -9.2728 2
      vertex -1.12368 -10.6911 2
      vertex -1.01915 -9.69659 2
    endloop
  endfacet
  facet normal 0 0 1
    outer loop
      vertex -3.01292 -9.2728 2
      vertex -3.32193 -10.2239 2
      vertex -1.12368 -10.6911 2
    endloop
  endfacet
  facet normal 0 0 1
    outer loop
      vertex -4.875 -8.44375 2
      vertex -3.32193 -10.2239 2
      vertex -3.01292 -9.2728 2
    endloop
  endfacet
  facet normal 0 0 1
    outer loop
      vertex -4.875 -8.44375 2
      vertex -5.375 -9.30977 2
      vertex -3.32193 -10.2239 2
    endloop
  endfacet
  facet normal 0 0 1
    outer loop
      vertex -6.52402 -7.24566 2
      vertex -5.375 -9.30977 2
      vertex -4.875 -8.44375 2
    endloop
  endfacet
  facet normal 0 0 1
    outer loop
      vertex -6.52402 -7.24566 2
      vertex -7.19315 -7.98881 2
      vertex -5.375 -9.30977 2
    endloop
  endfacet
  facet normal 0 0 1
    outer loop
      vertex -7.88792 -5.73091 2
      vertex -7.19315 -7.98881 2
      vertex -6.52402 -7.24566 2
    endloop
  endfacet
  facet normal 0 0 1
    outer loop
      vertex -7.88792 -5.73091 2
      vertex -8.69693 -6.31869 2
      vertex -7.19315 -7.98881 2
    endloop
  endfacet
  facet normal 0 0 1
    outer loop
      vertex -8.90707 -3.96568 2
      vertex -8.69693 -6.31869 2
      vertex -7.88792 -5.73091 2
    endloop
  endfacet
  facet normal 0 0 1
    outer loop
      vertex -9.82061 -4.37242 2
      vertex -8.90707 -3.96568 2
      vertex -9.53694 -2.02714 2
    endloop
  endfacet
  facet normal 0 0 1
    outer loop
      vertex -8.90707 -3.96568 2
      vertex -9.82061 -4.37242 2
      vertex -8.69693 -6.31869 2
    endloop
  endfacet
  facet normal 0 0 1
    outer loop
      vertex -10.5151 -2.23505 2
      vertex -9.53694 -2.02714 2
      vertex -9.75 0 2
    endloop
  endfacet
  facet normal 0 0 1
    outer loop
      vertex -9.53694 2.02714 2
      vertex -10.5151 2.23505 2
      vertex -9.75 0 2
    endloop
  endfacet
  facet normal 0 0 1
    outer loop
      vertex -10.75 0 2
      vertex -9.75 0 2
      vertex -10.5151 2.23505 2
    endloop
  endfacet
  facet normal 0 0 1
    outer loop
      vertex -9.53694 -2.02714 2
      vertex -10.5151 -2.23505 2
      vertex -9.82061 -4.37242 2
    endloop
  endfacet
  facet normal 0 0 1
    outer loop
      vertex -9.75 0 2
      vertex -10.75 0 2
      vertex -10.5151 -2.23505 2
    endloop
  endfacet
  facet normal -0.406737 0.913545 0
    outer loop
      vertex -3.32193 10.2239 0
      vertex -5.375 9.30977 2
      vertex -3.32193 10.2239 2
    endloop
  endfacet
  facet normal -0.406737 0.913545 0
    outer loop
      vertex -5.375 9.30977 2
      vertex -3.32193 10.2239 0
      vertex -5.375 9.30977 0
    endloop
  endfacet
  facet normal 0.994522 -0.104529 0
    outer loop
      vertex 10.5151 -2.23505 2
      vertex 10.75 0 0
      vertex 10.75 0 2
    endloop
  endfacet
  facet normal 0.994522 -0.104529 0
    outer loop
      vertex 10.75 0 0
      vertex 10.5151 -2.23505 2
      vertex 10.5151 -2.23505 0
    endloop
  endfacet
  facet normal -0.207912 -0.978148 0
    outer loop
      vertex -3.32193 -10.2239 0
      vertex -1.12368 -10.6911 2
      vertex -3.32193 -10.2239 2
    endloop
  endfacet
  facet normal -0.207912 -0.978148 -0
    outer loop
      vertex -1.12368 -10.6911 2
      vertex -3.32193 -10.2239 0
      vertex -1.12368 -10.6911 0
    endloop
  endfacet
  facet normal 0.207912 -0.978148 0
    outer loop
      vertex 1.12368 -10.6911 0
      vertex 3.32193 -10.2239 2
      vertex 1.12368 -10.6911 2
    endloop
  endfacet
  facet normal 0.207912 -0.978148 0
    outer loop
      vertex 3.32193 -10.2239 2
      vertex 1.12368 -10.6911 0
      vertex 3.32193 -10.2239 0
    endloop
  endfacet
  facet normal 0.743145 -0.669131 0
    outer loop
      vertex 7.19315 -7.98881 2
      vertex 8.69693 -6.31869 0
      vertex 8.69693 -6.31869 2
    endloop
  endfacet
  facet normal 0.743145 -0.669131 0
    outer loop
      vertex 8.69693 -6.31869 0
      vertex 7.19315 -7.98881 2
      vertex 7.19315 -7.98881 0
    endloop
  endfacet
  facet normal 0.951056 -0.309017 0
    outer loop
      vertex 9.82061 -4.37242 2
      vertex 10.5151 -2.23505 0
      vertex 10.5151 -2.23505 2
    endloop
  endfacet
  facet normal 0.951056 -0.309017 0
    outer loop
      vertex 10.5151 -2.23505 0
      vertex 9.82061 -4.37242 2
      vertex 9.82061 -4.37242 0
    endloop
  endfacet
  facet normal 0.866025 -0.5 0
    outer loop
      vertex 8.69693 -6.31869 2
      vertex 9.82061 -4.37242 0
      vertex 9.82061 -4.37242 2
    endloop
  endfacet
  facet normal 0.866025 -0.5 0
    outer loop
      vertex 9.82061 -4.37242 0
      vertex 8.69693 -6.31869 2
      vertex 8.69693 -6.31869 0
    endloop
  endfacet
  facet normal -0.866025 -0.5 0
    outer loop
      vertex -8.69693 -6.31869 0
      vertex -9.82061 -4.37242 2
      vertex -9.82061 -4.37242 0
    endloop
  endfacet
  facet normal -0.866025 -0.5 0
    outer loop
      vertex -9.82061 -4.37242 2
      vertex -8.69693 -6.31869 0
      vertex -8.69693 -6.31869 2
    endloop
  endfacet
  facet normal -0.994522 -0.104529 0
    outer loop
      vertex -10.5151 -2.23505 0
      vertex -10.75 0 2
      vertex -10.75 0 0
    endloop
  endfacet
  facet normal -0.994522 -0.104529 0
    outer loop
      vertex -10.75 0 2
      vertex -10.5151 -2.23505 0
      vertex -10.5151 -2.23505 2
    endloop
  endfacet
  facet normal -0.951056 -0.309017 0
    outer loop
      vertex -9.82061 -4.37242 0
      vertex -10.5151 -2.23505 2
      vertex -10.5151 -2.23505 0
    endloop
  endfacet
  facet normal -0.951056 -0.309017 0
    outer loop
      vertex -10.5151 -2.23505 2
      vertex -9.82061 -4.37242 0
      vertex -9.82061 -4.37242 2
    endloop
  endfacet
  facet normal 0.587785 -0.809017 0
    outer loop
      vertex 5.375 -9.30977 0
      vertex 7.19315 -7.98881 2
      vertex 5.375 -9.30977 2
    endloop
  endfacet
  facet normal 0.587785 -0.809017 0
    outer loop
      vertex 7.19315 -7.98881 2
      vertex 5.375 -9.30977 0
      vertex 7.19315 -7.98881 0
    endloop
  endfacet
  facet normal 0.406736 -0.913546 0
    outer loop
      vertex 3.32193 -10.2239 0
      vertex 5.375 -9.30977 2
      vertex 3.32193 -10.2239 2
    endloop
  endfacet
  facet normal 0.406736 -0.913546 0
    outer loop
      vertex 5.375 -9.30977 2
      vertex 3.32193 -10.2239 0
      vertex 5.375 -9.30977 0
    endloop
  endfacet
  facet normal 0 -1 0
    outer loop
      vertex -1.12368 -10.6911 0
      vertex 1.12368 -10.6911 2
      vertex -1.12368 -10.6911 2
    endloop
  endfacet
  facet normal 0 -1 -0
    outer loop
      vertex 1.12368 -10.6911 2
      vertex -1.12368 -10.6911 0
      vertex 1.12368 -10.6911 0
    endloop
  endfacet
  facet normal -0.587785 -0.809017 0
    outer loop
      vertex -7.19315 -7.98881 0
      vertex -5.375 -9.30977 2
      vertex -7.19315 -7.98881 2
    endloop
  endfacet
  facet normal -0.587785 -0.809017 -0
    outer loop
      vertex -5.375 -9.30977 2
      vertex -7.19315 -7.98881 0
      vertex -5.375 -9.30977 0
    endloop
  endfacet
  facet normal -0.406736 -0.913546 0
    outer loop
      vertex -5.375 -9.30977 0
      vertex -3.32193 -10.2239 2
      vertex -5.375 -9.30977 2
    endloop
  endfacet
  facet normal -0.406736 -0.913546 -0
    outer loop
      vertex -3.32193 -10.2239 2
      vertex -5.375 -9.30977 0
      vertex -3.32193 -10.2239 0
    endloop
  endfacet
  facet normal -0.743145 -0.669131 0
    outer loop
      vertex -7.19315 -7.98881 0
      vertex -8.69693 -6.31869 2
      vertex -8.69693 -6.31869 0
    endloop
  endfacet
  facet normal -0.743145 -0.669131 0
    outer loop
      vertex -8.69693 -6.31869 2
      vertex -7.19315 -7.98881 0
      vertex -7.19315 -7.98881 2
    endloop
  endfacet
  facet normal 0 0 -1
    outer loop
      vertex 1.75 0 0
      vertex 10.75 0 0
      vertex 10.5151 -2.23505 0
    endloop
  endfacet
  facet normal 0 0 -1
    outer loop
      vertex 1.71176 -0.363845 0
      vertex 10.5151 -2.23505 0
      vertex 9.82061 -4.37242 0
    endloop
  endfacet
  facet normal 0 0 -1
    outer loop
      vertex 10.75 0 0
      vertex 1.75 0 0
      vertex 10.5151 2.23505 0
    endloop
  endfacet
  facet normal 0 0 -1
    outer loop
      vertex 1.5987 -0.711788 0
      vertex 9.82061 -4.37242 0
      vertex 8.69693 -6.31869 0
    endloop
  endfacet
  facet normal 0 0 -1
    outer loop
      vertex 1.71176 0.363845 0
      vertex 10.5151 2.23505 0
      vertex 1.75 0 0
    endloop
  endfacet
  facet normal 0 0 -1
    outer loop
      vertex 1.41578 -1.02862 0
      vertex 8.69693 -6.31869 0
      vertex 7.19315 -7.98881 0
    endloop
  endfacet
  facet normal -0 0 -1
    outer loop
      vertex 10.5151 2.23505 0
      vertex 1.71176 0.363845 0
      vertex 9.82061 4.37242 0
    endloop
  endfacet
  facet normal 0 0 -1
    outer loop
      vertex 1.17098 -1.3005 0
      vertex 7.19315 -7.98881 0
      vertex 5.375 -9.30977 0
    endloop
  endfacet
  facet normal 0 0 -1
    outer loop
      vertex 1.5987 0.711788 0
      vertex 9.82061 4.37242 0
      vertex 1.71176 0.363845 0
    endloop
  endfacet
  facet normal 0 0 -1
    outer loop
      vertex 0.875 -1.51554 0
      vertex 5.375 -9.30977 0
      vertex 3.32193 -10.2239 0
    endloop
  endfacet
  facet normal -0 0 -1
    outer loop
      vertex 9.82061 4.37242 0
      vertex 1.5987 0.711788 0
      vertex 8.69693 6.31869 0
    endloop
  endfacet
  facet normal 0 0 -1
    outer loop
      vertex 1.41578 1.02862 0
      vertex 8.69693 6.31869 0
      vertex 1.5987 0.711788 0
    endloop
  endfacet
  facet normal 0 0 -1
    outer loop
      vertex 10.5151 -2.23505 0
      vertex 1.71176 -0.363845 0
      vertex 1.75 0 0
    endloop
  endfacet
  facet normal 0 0 -1
    outer loop
      vertex 9.82061 -4.37242 0
      vertex 1.5987 -0.711788 0
      vertex 1.71176 -0.363845 0
    endloop
  endfacet
  facet normal 0 0 -1
    outer loop
      vertex 8.69693 -6.31869 0
      vertex 1.41578 -1.02862 0
      vertex 1.5987 -0.711788 0
    endloop
  endfacet
  facet normal 0 0 -1
    outer loop
      vertex 7.19315 -7.98881 0
      vertex 1.17098 -1.3005 0
      vertex 1.41578 -1.02862 0
    endloop
  endfacet
  facet normal 0 0 -1
    outer loop
      vertex 0.540779 -1.66435 0
      vertex 3.32193 -10.2239 0
      vertex 1.12368 -10.6911 0
    endloop
  endfacet
  facet normal 0 0 -1
    outer loop
      vertex 5.375 -9.30977 0
      vertex 0.875 -1.51554 0
      vertex 1.17098 -1.3005 0
    endloop
  endfacet
  facet normal 0 0 -1
    outer loop
      vertex 3.32193 -10.2239 0
      vertex 0.540779 -1.66435 0
      vertex 0.875 -1.51554 0
    endloop
  endfacet
  facet normal 0 0 -1
    outer loop
      vertex 1.12368 -10.6911 0
      vertex 0.182924 -1.74041 0
      vertex 0.540779 -1.66435 0
    endloop
  endfacet
  facet normal 0 0 -1
    outer loop
      vertex 1.12368 -10.6911 0
      vertex -0.182924 -1.74041 0
      vertex 0.182924 -1.74041 0
    endloop
  endfacet
  facet normal 0 0 -1
    outer loop
      vertex -1.12368 -10.6911 0
      vertex -0.182924 -1.74041 0
      vertex 1.12368 -10.6911 0
    endloop
  endfacet
  facet normal -0 0 -1
    outer loop
      vertex -0.182924 -1.74041 0
      vertex -1.12368 -10.6911 0
      vertex -0.540779 -1.66435 0
    endloop
  endfacet
  facet normal 0 0 -1
    outer loop
      vertex -3.32193 -10.2239 0
      vertex -0.540779 -1.66435 0
      vertex -1.12368 -10.6911 0
    endloop
  endfacet
  facet normal -0 0 -1
    outer loop
      vertex -0.540779 -1.66435 0
      vertex -3.32193 -10.2239 0
      vertex -0.875 -1.51554 0
    endloop
  endfacet
  facet normal 0 0 -1
    outer loop
      vertex -5.375 -9.30977 0
      vertex -0.875 -1.51554 0
      vertex -3.32193 -10.2239 0
    endloop
  endfacet
  facet normal -0 0 -1
    outer loop
      vertex -0.875 -1.51554 0
      vertex -5.375 -9.30977 0
      vertex -1.17098 -1.3005 0
    endloop
  endfacet
  facet normal 0 0 -1
    outer loop
      vertex -7.19315 -7.98881 0
      vertex -1.17098 -1.3005 0
      vertex -5.375 -9.30977 0
    endloop
  endfacet
  facet normal -0 0 -1
    outer loop
      vertex -1.17098 -1.3005 0
      vertex -7.19315 -7.98881 0
      vertex -1.41578 -1.02862 0
    endloop
  endfacet
  facet normal 0 0 -1
    outer loop
      vertex -8.69693 -6.31869 0
      vertex -1.41578 -1.02862 0
      vertex -7.19315 -7.98881 0
    endloop
  endfacet
  facet normal -0 0 -1
    outer loop
      vertex 8.69693 6.31869 0
      vertex 1.41578 1.02862 0
      vertex 7.19315 7.98881 0
    endloop
  endfacet
  facet normal 0 0 -1
    outer loop
      vertex 1.17098 1.3005 0
      vertex 7.19315 7.98881 0
      vertex 1.41578 1.02862 0
    endloop
  endfacet
  facet normal -0 0 -1
    outer loop
      vertex 7.19315 7.98881 0
      vertex 1.17098 1.3005 0
      vertex 5.375 9.30977 0
    endloop
  endfacet
  facet normal 0 0 -1
    outer loop
      vertex 0.875 1.51554 0
      vertex 5.375 9.30977 0
      vertex 1.17098 1.3005 0
    endloop
  endfacet
  facet normal -0 0 -1
    outer loop
      vertex 5.375 9.30977 0
      vertex 0.875 1.51554 0
      vertex 3.32193 10.2239 0
    endloop
  endfacet
  facet normal 0 0 -1
    outer loop
      vertex 0.540779 1.66435 0
      vertex 3.32193 10.2239 0
      vertex 0.875 1.51554 0
    endloop
  endfacet
  facet normal -0 0 -1
    outer loop
      vertex 3.32193 10.2239 0
      vertex 0.540779 1.66435 0
      vertex 1.12368 10.6911 0
    endloop
  endfacet
  facet normal 0 0 -1
    outer loop
      vertex 0.182924 1.74041 0
      vertex 1.12368 10.6911 0
      vertex 0.540779 1.66435 0
    endloop
  endfacet
  facet normal 0 0 -1
    outer loop
      vertex -0.182924 1.74041 0
      vertex 1.12368 10.6911 0
      vertex 0.182924 1.74041 0
    endloop
  endfacet
  facet normal 0 0 -1
    outer loop
      vertex -1.12368 10.6911 0
      vertex -0.182924 1.74041 0
      vertex -0.540779 1.66435 0
    endloop
  endfacet
  facet normal 0 0 -1
    outer loop
      vertex -3.32193 10.2239 0
      vertex -0.540779 1.66435 0
      vertex -0.874999 1.51554 0
    endloop
  endfacet
  facet normal 0 0 -1
    outer loop
      vertex -0.182924 1.74041 0
      vertex -1.12368 10.6911 0
      vertex 1.12368 10.6911 0
    endloop
  endfacet
  facet normal 0 0 -1
    outer loop
      vertex -5.375 9.30977 0
      vertex -0.874999 1.51554 0
      vertex -1.17098 1.3005 0
    endloop
  endfacet
  facet normal 0 0 -1
    outer loop
      vertex -7.19315 7.98881 0
      vertex -1.17098 1.3005 0
      vertex -1.41578 1.02862 0
    endloop
  endfacet
  facet normal 0 0 -1
    outer loop
      vertex -8.69693 6.31869 0
      vertex -1.41578 1.02862 0
      vertex -1.5987 0.711788 0
    endloop
  endfacet
  facet normal 0 0 -1
    outer loop
      vertex -9.82061 4.37242 0
      vertex -1.5987 0.711788 0
      vertex -1.71176 0.363845 0
    endloop
  endfacet
  facet normal 0 0 -1
    outer loop
      vertex -10.5151 2.23505 0
      vertex -1.71176 0.363845 0
      vertex -1.75 0 0
    endloop
  endfacet
  facet normal -0 0 -1
    outer loop
      vertex -1.41578 -1.02862 0
      vertex -8.69693 -6.31869 0
      vertex -1.5987 -0.711788 0
    endloop
  endfacet
  facet normal 0 0 -1
    outer loop
      vertex -0.540779 1.66435 0
      vertex -3.32193 10.2239 0
      vertex -1.12368 10.6911 0
    endloop
  endfacet
  facet normal 0 0 -1
    outer loop
      vertex -0.874999 1.51554 0
      vertex -5.375 9.30977 0
      vertex -3.32193 10.2239 0
    endloop
  endfacet
  facet normal 0 0 -1
    outer loop
      vertex -9.82061 -4.37242 0
      vertex -1.5987 -0.711788 0
      vertex -8.69693 -6.31869 0
    endloop
  endfacet
  facet normal -0 0 -1
    outer loop
      vertex -1.5987 -0.711788 0
      vertex -9.82061 -4.37242 0
      vertex -1.71176 -0.363845 0
    endloop
  endfacet
  facet normal 0 0 -1
    outer loop
      vertex -1.17098 1.3005 0
      vertex -7.19315 7.98881 0
      vertex -5.375 9.30977 0
    endloop
  endfacet
  facet normal 0 0 -1
    outer loop
      vertex -10.5151 -2.23505 0
      vertex -1.71176 -0.363845 0
      vertex -9.82061 -4.37242 0
    endloop
  endfacet
  facet normal 0 0 -1
    outer loop
      vertex -1.41578 1.02862 0
      vertex -8.69693 6.31869 0
      vertex -7.19315 7.98881 0
    endloop
  endfacet
  facet normal -0 0 -1
    outer loop
      vertex -1.71176 -0.363845 0
      vertex -10.5151 -2.23505 0
      vertex -1.75 0 0
    endloop
  endfacet
  facet normal 0 0 -1
    outer loop
      vertex -1.5987 0.711788 0
      vertex -9.82061 4.37242 0
      vertex -8.69693 6.31869 0
    endloop
  endfacet
  facet normal 0 0 -1
    outer loop
      vertex -10.75 0 0
      vertex -1.75 0 0
      vertex -10.5151 -2.23505 0
    endloop
  endfacet
  facet normal 0 0 -1
    outer loop
      vertex -1.71176 0.363845 0
      vertex -10.5151 2.23505 0
      vertex -9.82061 4.37242 0
    endloop
  endfacet
  facet normal 0 0 -1
    outer loop
      vertex -1.75 0 0
      vertex -10.75 0 0
      vertex -10.5151 2.23505 0
    endloop
  endfacet
  facet normal 0.994522 0.104529 0
    outer loop
      vertex 9.75 0 4.6
      vertex 9.53694 2.02714 2
      vertex 9.53694 2.02714 4.6
    endloop
  endfacet
  facet normal 0.994522 0.104529 0
    outer loop
      vertex 9.53694 2.02714 2
      vertex 9.75 0 4.6
      vertex 9.75 0 2
    endloop
  endfacet
  facet normal -0.994522 0.104529 0
    outer loop
      vertex -9.75 0 2
      vertex -9.53694 2.02714 4.6
      vertex -9.53694 2.02714 2
    endloop
  endfacet
  facet normal -0.994522 0.104529 0
    outer loop
      vertex -9.53694 2.02714 4.6
      vertex -9.75 0 2
      vertex -9.75 0 4.6
    endloop
  endfacet
  facet normal 0 1 -0
    outer loop
      vertex 1.01915 9.69659 2
      vertex -1.01915 9.69659 4.6
      vertex 1.01915 9.69659 4.6
    endloop
  endfacet
  facet normal 0 1 0
    outer loop
      vertex -1.01915 9.69659 4.6
      vertex 1.01915 9.69659 2
      vertex -1.01915 9.69659 2
    endloop
  endfacet
  facet normal 0 -1 0
    outer loop
      vertex -1.01915 -9.69659 2
      vertex 1.01915 -9.69659 4.6
      vertex -1.01915 -9.69659 4.6
    endloop
  endfacet
  facet normal 0 -1 -0
    outer loop
      vertex 1.01915 -9.69659 4.6
      vertex -1.01915 -9.69659 2
      vertex 1.01915 -9.69659 2
    endloop
  endfacet
  facet normal 0.587785 0.809017 -0
    outer loop
      vertex 6.52402 7.24566 2
      vertex 4.875 8.44375 4.6
      vertex 6.52402 7.24566 4.6
    endloop
  endfacet
  facet normal 0.587785 0.809017 0
    outer loop
      vertex 4.875 8.44375 4.6
      vertex 6.52402 7.24566 2
      vertex 4.875 8.44375 2
    endloop
  endfacet
  facet normal 0.406736 0.913546 -0
    outer loop
      vertex 4.875 8.44375 2
      vertex 3.01292 9.2728 4.6
      vertex 4.875 8.44375 4.6
    endloop
  endfacet
  facet normal 0.406736 0.913546 0
    outer loop
      vertex 3.01292 9.2728 4.6
      vertex 4.875 8.44375 2
      vertex 3.01292 9.2728 2
    endloop
  endfacet
  facet normal -0.587785 0.809017 0
    outer loop
      vertex -4.875 8.44375 2
      vertex -6.52402 7.24566 4.6
      vertex -4.875 8.44375 4.6
    endloop
  endfacet
  facet normal -0.587785 0.809017 0
    outer loop
      vertex -6.52402 7.24566 4.6
      vertex -4.875 8.44375 2
      vertex -6.52402 7.24566 2
    endloop
  endfacet
  facet normal -0.207911 0.978148 0
    outer loop
      vertex -1.01915 9.69659 2
      vertex -3.01292 9.2728 4.6
      vertex -1.01915 9.69659 4.6
    endloop
  endfacet
  facet normal -0.207911 0.978148 0
    outer loop
      vertex -3.01292 9.2728 4.6
      vertex -1.01915 9.69659 2
      vertex -3.01292 9.2728 2
    endloop
  endfacet
  facet normal 0.866026 0.5 0
    outer loop
      vertex 8.90707 3.96568 4.6
      vertex 7.88792 5.73091 2
      vertex 7.88792 5.73091 4.6
    endloop
  endfacet
  facet normal 0.866026 0.5 0
    outer loop
      vertex 7.88792 5.73091 2
      vertex 8.90707 3.96568 4.6
      vertex 8.90707 3.96568 2
    endloop
  endfacet
  facet normal 0.951056 0.309017 0
    outer loop
      vertex 9.53694 2.02714 4.6
      vertex 8.90707 3.96568 2
      vertex 8.90707 3.96568 4.6
    endloop
  endfacet
  facet normal 0.951056 0.309017 0
    outer loop
      vertex 8.90707 3.96568 2
      vertex 9.53694 2.02714 4.6
      vertex 9.53694 2.02714 2
    endloop
  endfacet
  facet normal 0.743145 0.669131 0
    outer loop
      vertex 7.88792 5.73091 4.6
      vertex 6.52402 7.24566 2
      vertex 6.52402 7.24566 4.6
    endloop
  endfacet
  facet normal 0.743145 0.669131 0
    outer loop
      vertex 6.52402 7.24566 2
      vertex 7.88792 5.73091 4.6
      vertex 7.88792 5.73091 2
    endloop
  endfacet
  facet normal 0.207911 0.978148 -0
    outer loop
      vertex 3.01292 9.2728 2
      vertex 1.01915 9.69659 4.6
      vertex 3.01292 9.2728 4.6
    endloop
  endfacet
  facet normal 0.207911 0.978148 0
    outer loop
      vertex 1.01915 9.69659 4.6
      vertex 3.01292 9.2728 2
      vertex 1.01915 9.69659 2
    endloop
  endfacet
  facet normal -0.866026 0.5 0
    outer loop
      vertex -8.90707 3.96568 2
      vertex -7.88792 5.73091 4.6
      vertex -7.88792 5.73091 2
    endloop
  endfacet
  facet normal -0.866026 0.5 0
    outer loop
      vertex -7.88792 5.73091 4.6
      vertex -8.90707 3.96568 2
      vertex -8.90707 3.96568 4.6
    endloop
  endfacet
  facet normal -0.743145 0.669131 0
    outer loop
      vertex -7.88792 5.73091 2
      vertex -6.52402 7.24566 4.6
      vertex -6.52402 7.24566 2
    endloop
  endfacet
  facet normal -0.743145 0.669131 0
    outer loop
      vertex -6.52402 7.24566 4.6
      vertex -7.88792 5.73091 2
      vertex -7.88792 5.73091 4.6
    endloop
  endfacet
  facet normal -0.951056 0.309017 0
    outer loop
      vertex -9.53694 2.02714 2
      vertex -8.90707 3.96568 4.6
      vertex -8.90707 3.96568 2
    endloop
  endfacet
  facet normal -0.951056 0.309017 0
    outer loop
      vertex -8.90707 3.96568 4.6
      vertex -9.53694 2.02714 2
      vertex -9.53694 2.02714 4.6
    endloop
  endfacet
  facet normal -0 0 1
    outer loop
      vertex 4.51237 0.521331 4.6
      vertex 9.75 0 4.6
      vertex 9.53694 2.02714 4.6
    endloop
  endfacet
  facet normal 0 0 1
    outer loop
      vertex 4.30537 1.44811 4.6
      vertex 9.53694 2.02714 4.6
      vertex 8.90707 3.96568 4.6
    endloop
  endfacet
  facet normal 0 0 1
    outer loop
      vertex 9.75 0 4.6
      vertex 4.51237 0.521331 4.6
      vertex 4.56716 0 4.6
    endloop
  endfacet
  facet normal 0 0 1
    outer loop
      vertex 3.95701 2.23054 4.6
      vertex 8.90707 3.96568 4.6
      vertex 7.88792 5.73091 4.6
    endloop
  endfacet
  facet normal 0 0 1
    outer loop
      vertex 4.51237 -0.521331 4.6
      vertex 9.75 0 4.6
      vertex 4.56716 0 4.6
    endloop
  endfacet
  facet normal 0 0 1
    outer loop
      vertex 3.34415 3.07407 4.6
      vertex 7.88792 5.73091 4.6
      vertex 6.52402 7.24566 4.6
    endloop
  endfacet
  facet normal 0 0 1
    outer loop
      vertex 9.75 0 4.6
      vertex 4.51237 -0.521331 4.6
      vertex 9.53694 -2.02714 4.6
    endloop
  endfacet
  facet normal 0 0 1
    outer loop
      vertex 2.70767 3.64716 4.6
      vertex 6.52402 7.24566 4.6
      vertex 4.875 8.44375 4.6
    endloop
  endfacet
  facet normal -0 0 1
    outer loop
      vertex 4.30537 -1.44811 4.6
      vertex 9.53694 -2.02714 4.6
      vertex 4.46736 -0.949566 4.6
    endloop
  endfacet
  facet normal 0 0 1
    outer loop
      vertex 9.53694 -2.02714 4.6
      vertex 4.30537 -1.44811 4.6
      vertex 8.90707 -3.96568 4.6
    endloop
  endfacet
  facet normal -0 0 1
    outer loop
      vertex 4.46736 -0.949566 4.6
      vertex 9.53694 -2.02714 4.6
      vertex 4.51237 -0.521331 4.6
    endloop
  endfacet
  facet normal 0 0 1
    outer loop
      vertex 9.53694 2.02714 4.6
      vertex 4.46736 0.949566 4.6
      vertex 4.51237 0.521331 4.6
    endloop
  endfacet
  facet normal 0 0 1
    outer loop
      vertex 9.53694 2.02714 4.6
      vertex 4.30537 1.44811 4.6
      vertex 4.46736 0.949566 4.6
    endloop
  endfacet
  facet normal 0 0 1
    outer loop
      vertex 8.90707 3.96568 4.6
      vertex 4.17231 1.85763 4.6
      vertex 4.30537 1.44811 4.6
    endloop
  endfacet
  facet normal 0 0 1
    outer loop
      vertex 8.90707 3.96568 4.6
      vertex 3.95701 2.23054 4.6
      vertex 4.17231 1.85763 4.6
    endloop
  endfacet
  facet normal 0 0 1
    outer loop
      vertex 7.88792 5.73091 4.6
      vertex 3.69491 2.68451 4.6
      vertex 3.95701 2.23054 4.6
    endloop
  endfacet
  facet normal 0 0 1
    outer loop
      vertex 7.88792 5.73091 4.6
      vertex 3.34415 3.07407 4.6
      vertex 3.69491 2.68451 4.6
    endloop
  endfacet
  facet normal 0 0 1
    outer loop
      vertex 6.52402 7.24566 4.6
      vertex 3.05603 3.39406 4.6
      vertex 3.34415 3.07407 4.6
    endloop
  endfacet
  facet normal 0 0 1
    outer loop
      vertex 1.89021 4.13042 4.6
      vertex 4.875 8.44375 4.6
      vertex 3.01292 9.2728 4.6
    endloop
  endfacet
  facet normal 0 0 1
    outer loop
      vertex 6.52402 7.24566 4.6
      vertex 2.70767 3.64716 4.6
      vertex 3.05603 3.39406 4.6
    endloop
  endfacet
  facet normal 0 0 1
    outer loop
      vertex 4.875 8.44375 4.6
      vertex 2.28358 3.95528 4.6
      vertex 2.70767 3.64716 4.6
    endloop
  endfacet
  facet normal 0 0 1
    outer loop
      vertex 4.875 8.44375 4.6
      vertex 1.89021 4.13042 4.6
      vertex 2.28358 3.95528 4.6
    endloop
  endfacet
  facet normal 0 0 1
    outer loop
      vertex 3.01292 9.2728 4.6
      vertex 1.41133 4.34363 4.6
      vertex 1.89021 4.13042 4.6
    endloop
  endfacet
  facet normal 0 0 1
    outer loop
      vertex 0.898584 4.45262 4.6
      vertex 3.01292 9.2728 4.6
      vertex 1.01915 9.69659 4.6
    endloop
  endfacet
  facet normal 0 0 1
    outer loop
      vertex 3.01292 9.2728 4.6
      vertex 0.898584 4.45262 4.6
      vertex 1.41133 4.34363 4.6
    endloop
  endfacet
  facet normal 0 0 1
    outer loop
      vertex 1.01915 9.69659 4.6
      vertex 0.477399 4.54214 4.6
      vertex 0.898584 4.45262 4.6
    endloop
  endfacet
  facet normal 0 0 1
    outer loop
      vertex 1.01915 9.69659 4.6
      vertex -0.477399 4.54214 4.6
      vertex 0.477399 4.54214 4.6
    endloop
  endfacet
  facet normal -0 0 1
    outer loop
      vertex -1.01915 9.69659 4.6
      vertex -0.477399 4.54214 4.6
      vertex 1.01915 9.69659 4.6
    endloop
  endfacet
  facet normal 0 0 1
    outer loop
      vertex -0.477399 4.54214 4.6
      vertex -1.01915 9.69659 4.6
      vertex -0.898584 4.45262 4.6
    endloop
  endfacet
  facet normal -0 0 1
    outer loop
      vertex -3.01292 9.2728 4.6
      vertex -0.898584 4.45262 4.6
      vertex -1.01915 9.69659 4.6
    endloop
  endfacet
  facet normal 0 0 1
    outer loop
      vertex -0.898584 4.45262 4.6
      vertex -3.01292 9.2728 4.6
      vertex -1.41133 4.34363 4.6
    endloop
  endfacet
  facet normal 0 0 1
    outer loop
      vertex -1.41133 4.34363 4.6
      vertex -3.01292 9.2728 4.6
      vertex -1.89021 4.13042 4.6
    endloop
  endfacet
  facet normal -0 0 1
    outer loop
      vertex -4.875 8.44375 4.6
      vertex -1.89021 4.13042 4.6
      vertex -3.01292 9.2728 4.6
    endloop
  endfacet
  facet normal 0 0 1
    outer loop
      vertex -1.89021 4.13042 4.6
      vertex -4.875 8.44375 4.6
      vertex -2.28358 3.95528 4.6
    endloop
  endfacet
  facet normal 0 0 1
    outer loop
      vertex -2.28358 3.95528 4.6
      vertex -4.875 8.44375 4.6
      vertex -2.70767 3.64716 4.6
    endloop
  endfacet
  facet normal -0 0 1
    outer loop
      vertex -6.52402 7.24566 4.6
      vertex -2.70767 3.64716 4.6
      vertex -4.875 8.44375 4.6
    endloop
  endfacet
  facet normal 0 0 1
    outer loop
      vertex -2.70767 3.64716 4.6
      vertex -6.52402 7.24566 4.6
      vertex -3.05603 3.39406 4.6
    endloop
  endfacet
  facet normal 0 0 1
    outer loop
      vertex -3.05603 3.39406 4.6
      vertex -6.52402 7.24566 4.6
      vertex -3.34415 3.07407 4.6
    endloop
  endfacet
  facet normal -0 0 1
    outer loop
      vertex -7.88792 5.73091 4.6
      vertex -3.34415 3.07407 4.6
      vertex -6.52402 7.24566 4.6
    endloop
  endfacet
  facet normal 0 0 1
    outer loop
      vertex -3.34415 3.07407 4.6
      vertex -7.88792 5.73091 4.6
      vertex -3.69491 2.68451 4.6
    endloop
  endfacet
  facet normal 0 0 1
    outer loop
      vertex -3.69491 2.68451 4.6
      vertex -7.88792 5.73091 4.6
      vertex -3.95701 2.23054 4.6
    endloop
  endfacet
  facet normal 0 0 1
    outer loop
      vertex -4.17231 1.85763 4.6
      vertex -8.90707 3.96568 4.6
      vertex -4.30537 1.44811 4.6
    endloop
  endfacet
  facet normal 0 0 1
    outer loop
      vertex -3.95701 2.23054 4.6
      vertex -8.90707 3.96568 4.6
      vertex -4.17231 1.85763 4.6
    endloop
  endfacet
  facet normal -0 0 1
    outer loop
      vertex -8.90707 3.96568 4.6
      vertex -3.95701 2.23054 4.6
      vertex -7.88792 5.73091 4.6
    endloop
  endfacet
  facet normal -0 0 1
    outer loop
      vertex 4.17231 -1.85763 4.6
      vertex 8.90707 -3.96568 4.6
      vertex 4.30537 -1.44811 4.6
    endloop
  endfacet
  facet normal -0 0 1
    outer loop
      vertex 3.95701 -2.23054 4.6
      vertex 8.90707 -3.96568 4.6
      vertex 4.17231 -1.85763 4.6
    endloop
  endfacet
  facet normal 0 0 1
    outer loop
      vertex 8.90707 -3.96568 4.6
      vertex 3.95701 -2.23054 4.6
      vertex 7.88792 -5.73091 4.6
    endloop
  endfacet
  facet normal -0 0 1
    outer loop
      vertex 3.69491 -2.68451 4.6
      vertex 7.88792 -5.73091 4.6
      vertex 3.95701 -2.23054 4.6
    endloop
  endfacet
  facet normal -0 0 1
    outer loop
      vertex 3.34415 -3.07407 4.6
      vertex 7.88792 -5.73091 4.6
      vertex 3.69491 -2.68451 4.6
    endloop
  endfacet
  facet normal 0 0 1
    outer loop
      vertex 7.88792 -5.73091 4.6
      vertex 3.34415 -3.07407 4.6
      vertex 6.52402 -7.24566 4.6
    endloop
  endfacet
  facet normal -0 0 1
    outer loop
      vertex 3.05603 -3.39406 4.6
      vertex 6.52402 -7.24566 4.6
      vertex 3.34415 -3.07407 4.6
    endloop
  endfacet
  facet normal -0 0 1
    outer loop
      vertex 2.70767 -3.64716 4.6
      vertex 6.52402 -7.24566 4.6
      vertex 3.05603 -3.39406 4.6
    endloop
  endfacet
  facet normal 0 0 1
    outer loop
      vertex 6.52402 -7.24566 4.6
      vertex 2.70767 -3.64716 4.6
      vertex 4.875 -8.44375 4.6
    endloop
  endfacet
  facet normal -0 0 1
    outer loop
      vertex 2.28358 -3.95528 4.6
      vertex 4.875 -8.44375 4.6
      vertex 2.70767 -3.64716 4.6
    endloop
  endfacet
  facet normal -0 0 1
    outer loop
      vertex 1.89021 -4.13042 4.6
      vertex 4.875 -8.44375 4.6
      vertex 2.28358 -3.95528 4.6
    endloop
  endfacet
  facet normal 0 0 1
    outer loop
      vertex 4.875 -8.44375 4.6
      vertex 1.89021 -4.13042 4.6
      vertex 3.01292 -9.2728 4.6
    endloop
  endfacet
  facet normal -0 0 1
    outer loop
      vertex 1.41133 -4.34363 4.6
      vertex 3.01292 -9.2728 4.6
      vertex 1.89021 -4.13042 4.6
    endloop
  endfacet
  facet normal -0 0 1
    outer loop
      vertex 0.898584 -4.45262 4.6
      vertex 3.01292 -9.2728 4.6
      vertex 1.41133 -4.34363 4.6
    endloop
  endfacet
  facet normal 0 0 1
    outer loop
      vertex 3.01292 -9.2728 4.6
      vertex 0.898584 -4.45262 4.6
      vertex 1.01915 -9.69659 4.6
    endloop
  endfacet
  facet normal -0 0 1
    outer loop
      vertex 0.477399 -4.54214 4.6
      vertex 1.01915 -9.69659 4.6
      vertex 0.898584 -4.45262 4.6
    endloop
  endfacet
  facet normal -0 0 1
    outer loop
      vertex -0.477399 -4.54214 4.6
      vertex 1.01915 -9.69659 4.6
      vertex 0.477399 -4.54214 4.6
    endloop
  endfacet
  facet normal 0 0 1
    outer loop
      vertex -1.01915 -9.69659 4.6
      vertex -0.477399 -4.54214 4.6
      vertex -0.898584 -4.45262 4.6
    endloop
  endfacet
  facet normal 0 0 1
    outer loop
      vertex -0.477399 -4.54214 4.6
      vertex -1.01915 -9.69659 4.6
      vertex 1.01915 -9.69659 4.6
    endloop
  endfacet
  facet normal 0 0 1
    outer loop
      vertex -3.01292 -9.2728 4.6
      vertex -0.898584 -4.45262 4.6
      vertex -1.41133 -4.34363 4.6
    endloop
  endfacet
  facet normal 0 0 1
    outer loop
      vertex -3.01292 -9.2728 4.6
      vertex -1.41133 -4.34363 4.6
      vertex -1.89021 -4.13042 4.6
    endloop
  endfacet
  facet normal 0 0 1
    outer loop
      vertex -4.875 -8.44375 4.6
      vertex -1.89021 -4.13042 4.6
      vertex -2.28358 -3.95528 4.6
    endloop
  endfacet
  facet normal 0 0 1
    outer loop
      vertex -4.875 -8.44375 4.6
      vertex -2.28358 -3.95528 4.6
      vertex -2.70767 -3.64716 4.6
    endloop
  endfacet
  facet normal 0 0 1
    outer loop
      vertex -0.898584 -4.45262 4.6
      vertex -3.01292 -9.2728 4.6
      vertex -1.01915 -9.69659 4.6
    endloop
  endfacet
  facet normal 0 0 1
    outer loop
      vertex -6.52402 -7.24566 4.6
      vertex -2.70767 -3.64716 4.6
      vertex -3.05603 -3.39406 4.6
    endloop
  endfacet
  facet normal 0 0 1
    outer loop
      vertex -6.52402 -7.24566 4.6
      vertex -3.05603 -3.39406 4.6
      vertex -3.34415 -3.07407 4.6
    endloop
  endfacet
  facet normal 0 0 1
    outer loop
      vertex -7.88792 -5.73091 4.6
      vertex -3.34415 -3.07407 4.6
      vertex -3.69491 -2.68451 4.6
    endloop
  endfacet
  facet normal 0 0 1
    outer loop
      vertex -7.88792 -5.73091 4.6
      vertex -3.69491 -2.68451 4.6
      vertex -3.95701 -2.23054 4.6
    endloop
  endfacet
  facet normal 0 0 1
    outer loop
      vertex -8.90707 -3.96568 4.6
      vertex -3.95701 -2.23054 4.6
      vertex -4.17231 -1.85763 4.6
    endloop
  endfacet
  facet normal 0 0 1
    outer loop
      vertex -8.90707 -3.96568 4.6
      vertex -4.17231 -1.85763 4.6
      vertex -4.30537 -1.44811 4.6
    endloop
  endfacet
  facet normal 0 0 1
    outer loop
      vertex -9.53694 -2.02714 4.6
      vertex -4.30537 -1.44811 4.6
      vertex -4.46736 -0.949566 4.6
    endloop
  endfacet
  facet normal 0 0 1
    outer loop
      vertex -1.89021 -4.13042 4.6
      vertex -4.875 -8.44375 4.6
      vertex -3.01292 -9.2728 4.6
    endloop
  endfacet
  facet normal 0 0 1
    outer loop
      vertex -9.53694 -2.02714 4.6
      vertex -4.46736 -0.949566 4.6
      vertex -4.51237 -0.521331 4.6
    endloop
  endfacet
  facet normal -0 0 1
    outer loop
      vertex -9.75 0 4.6
      vertex -4.51237 -0.521331 4.6
      vertex -4.56716 0 4.6
    endloop
  endfacet
  facet normal -0 0 1
    outer loop
      vertex -9.53694 2.02714 4.6
      vertex -4.30537 1.44811 4.6
      vertex -8.90707 3.96568 4.6
    endloop
  endfacet
  facet normal 0 0 1
    outer loop
      vertex -4.30537 1.44811 4.6
      vertex -9.53694 2.02714 4.6
      vertex -4.46736 0.949566 4.6
    endloop
  endfacet
  facet normal 0 0 1
    outer loop
      vertex -2.70767 -3.64716 4.6
      vertex -6.52402 -7.24566 4.6
      vertex -4.875 -8.44375 4.6
    endloop
  endfacet
  facet normal 0 0 1
    outer loop
      vertex -4.46736 0.949566 4.6
      vertex -9.53694 2.02714 4.6
      vertex -4.51237 0.521331 4.6
    endloop
  endfacet
  facet normal 0 0 1
    outer loop
      vertex -3.34415 -3.07407 4.6
      vertex -7.88792 -5.73091 4.6
      vertex -6.52402 -7.24566 4.6
    endloop
  endfacet
  facet normal 0 0 1
    outer loop
      vertex -9.75 0 4.6
      vertex -4.51237 0.521331 4.6
      vertex -9.53694 2.02714 4.6
    endloop
  endfacet
  facet normal 0 0 1
    outer loop
      vertex -3.95701 -2.23054 4.6
      vertex -8.90707 -3.96568 4.6
      vertex -7.88792 -5.73091 4.6
    endloop
  endfacet
  facet normal 0 0 1
    outer loop
      vertex -4.51237 0.521331 4.6
      vertex -9.75 0 4.6
      vertex -4.56716 0 4.6
    endloop
  endfacet
  facet normal 0 0 1
    outer loop
      vertex -4.30537 -1.44811 4.6
      vertex -9.53694 -2.02714 4.6
      vertex -8.90707 -3.96568 4.6
    endloop
  endfacet
  facet normal 0 0 1
    outer loop
      vertex -4.51237 -0.521331 4.6
      vertex -9.75 0 4.6
      vertex -9.53694 -2.02714 4.6
    endloop
  endfacet
  facet normal -0.406737 0.913545 0
    outer loop
      vertex -3.01292 9.2728 2
      vertex -4.875 8.44375 4.6
      vertex -3.01292 9.2728 4.6
    endloop
  endfacet
  facet normal -0.406737 0.913545 0
    outer loop
      vertex -4.875 8.44375 4.6
      vertex -3.01292 9.2728 2
      vertex -4.875 8.44375 2
    endloop
  endfacet
  facet normal 0.994522 -0.104529 0
    outer loop
      vertex 9.53694 -2.02714 4.6
      vertex 9.75 0 2
      vertex 9.75 0 4.6
    endloop
  endfacet
  facet normal 0.994522 -0.104529 0
    outer loop
      vertex 9.75 0 2
      vertex 9.53694 -2.02714 4.6
      vertex 9.53694 -2.02714 2
    endloop
  endfacet
  facet normal 0.207911 -0.978148 0
    outer loop
      vertex 1.01915 -9.69659 2
      vertex 3.01292 -9.2728 4.6
      vertex 1.01915 -9.69659 4.6
    endloop
  endfacet
  facet normal 0.207911 -0.978148 0
    outer loop
      vertex 3.01292 -9.2728 4.6
      vertex 1.01915 -9.69659 2
      vertex 3.01292 -9.2728 2
    endloop
  endfacet
  facet normal 0.866026 -0.5 0
    outer loop
      vertex 7.88792 -5.73091 4.6
      vertex 8.90707 -3.96568 2
      vertex 8.90707 -3.96568 4.6
    endloop
  endfacet
  facet normal 0.866026 -0.5 0
    outer loop
      vertex 8.90707 -3.96568 2
      vertex 7.88792 -5.73091 4.6
      vertex 7.88792 -5.73091 2
    endloop
  endfacet
  facet normal -0.866026 -0.5 0
    outer loop
      vertex -7.88792 -5.73091 2
      vertex -8.90707 -3.96568 4.6
      vertex -8.90707 -3.96568 2
    endloop
  endfacet
  facet normal -0.866026 -0.5 0
    outer loop
      vertex -8.90707 -3.96568 4.6
      vertex -7.88792 -5.73091 2
      vertex -7.88792 -5.73091 4.6
    endloop
  endfacet
  facet normal -0.743145 -0.669131 0
    outer loop
      vertex -6.52402 -7.24566 2
      vertex -7.88792 -5.73091 4.6
      vertex -7.88792 -5.73091 2
    endloop
  endfacet
  facet normal -0.743145 -0.669131 0
    outer loop
      vertex -7.88792 -5.73091 4.6
      vertex -6.52402 -7.24566 2
      vertex -6.52402 -7.24566 4.6
    endloop
  endfacet
  facet normal 0.587785 -0.809017 0
    outer loop
      vertex 4.875 -8.44375 2
      vertex 6.52402 -7.24566 4.6
      vertex 4.875 -8.44375 4.6
    endloop
  endfacet
  facet normal 0.587785 -0.809017 0
    outer loop
      vertex 6.52402 -7.24566 4.6
      vertex 4.875 -8.44375 2
      vertex 6.52402 -7.24566 2
    endloop
  endfacet
  facet normal 0.406736 -0.913546 0
    outer loop
      vertex 3.01292 -9.2728 2
      vertex 4.875 -8.44375 4.6
      vertex 3.01292 -9.2728 4.6
    endloop
  endfacet
  facet normal 0.406736 -0.913546 0
    outer loop
      vertex 4.875 -8.44375 4.6
      vertex 3.01292 -9.2728 2
      vertex 4.875 -8.44375 2
    endloop
  endfacet
  facet normal 0.951056 -0.309017 0
    outer loop
      vertex 8.90707 -3.96568 4.6
      vertex 9.53694 -2.02714 2
      vertex 9.53694 -2.02714 4.6
    endloop
  endfacet
  facet normal 0.951056 -0.309017 0
    outer loop
      vertex 9.53694 -2.02714 2
      vertex 8.90707 -3.96568 4.6
      vertex 8.90707 -3.96568 2
    endloop
  endfacet
  facet normal -0.207911 -0.978148 0
    outer loop
      vertex -3.01292 -9.2728 2
      vertex -1.01915 -9.69659 4.6
      vertex -3.01292 -9.2728 4.6
    endloop
  endfacet
  facet normal -0.207911 -0.978148 -0
    outer loop
      vertex -1.01915 -9.69659 4.6
      vertex -3.01292 -9.2728 2
      vertex -1.01915 -9.69659 2
    endloop
  endfacet
  facet normal -0.951056 -0.309017 0
    outer loop
      vertex -8.90707 -3.96568 2
      vertex -9.53694 -2.02714 4.6
      vertex -9.53694 -2.02714 2
    endloop
  endfacet
  facet normal -0.951056 -0.309017 0
    outer loop
      vertex -9.53694 -2.02714 4.6
      vertex -8.90707 -3.96568 2
      vertex -8.90707 -3.96568 4.6
    endloop
  endfacet
  facet normal -0.994522 -0.104529 0
    outer loop
      vertex -9.53694 -2.02714 2
      vertex -9.75 0 4.6
      vertex -9.75 0 2
    endloop
  endfacet
  facet normal -0.994522 -0.104529 0
    outer loop
      vertex -9.75 0 4.6
      vertex -9.53694 -2.02714 2
      vertex -9.53694 -2.02714 4.6
    endloop
  endfacet
  facet normal 0.743145 -0.669131 0
    outer loop
      vertex 6.52402 -7.24566 4.6
      vertex 7.88792 -5.73091 2
      vertex 7.88792 -5.73091 4.6
    endloop
  endfacet
  facet normal 0.743145 -0.669131 0
    outer loop
      vertex 7.88792 -5.73091 2
      vertex 6.52402 -7.24566 4.6
      vertex 6.52402 -7.24566 2
    endloop
  endfacet
  facet normal -0.406736 -0.913546 0
    outer loop
      vertex -4.875 -8.44375 2
      vertex -3.01292 -9.2728 4.6
      vertex -4.875 -8.44375 4.6
    endloop
  endfacet
  facet normal -0.406736 -0.913546 -0
    outer loop
      vertex -3.01292 -9.2728 4.6
      vertex -4.875 -8.44375 2
      vertex -3.01292 -9.2728 2
    endloop
  endfacet
  facet normal -0.587785 -0.809017 0
    outer loop
      vertex -6.52402 -7.24566 2
      vertex -4.875 -8.44375 4.6
      vertex -6.52402 -7.24566 4.6
    endloop
  endfacet
  facet normal -0.587785 -0.809017 -0
    outer loop
      vertex -4.875 -8.44375 4.6
      vertex -6.52402 -7.24566 2
      vertex -4.875 -8.44375 2
    endloop
  endfacet
  facet normal 0.798605 0.0839371 0.595974
    outer loop
      vertex 4.51237 0.521331 4.6
      vertex 3 0 6.7
      vertex 4.56716 0 4.6
    endloop
  endfacet
  facet normal 0.763702 0.248142 0.595974
    outer loop
      vertex 2.74064 1.22021 6.7
      vertex 4.30537 1.44811 4.6
      vertex 4.17231 1.85763 4.6
    endloop
  endfacet
  facet normal 0.763702 0.248142 0.595974
    outer loop
      vertex 4.30537 1.44811 4.6
      vertex 2.74064 1.22021 6.7
      vertex 2.93444 0.623734 6.7
    endloop
  endfacet
  facet normal 0.763702 -0.248142 0.595974
    outer loop
      vertex 4.46736 -0.949566 4.6
      vertex 2.93444 -0.623734 6.7
      vertex 4.30537 -1.44811 4.6
    endloop
  endfacet
  facet normal -0.798605 -0.0839371 0.595974
    outer loop
      vertex -3 0 6.7
      vertex -4.56716 0 4.6
      vertex -4.51237 -0.521331 4.6
    endloop
  endfacet
  facet normal 0.695422 0.401502 0.595974
    outer loop
      vertex 3.69491 2.68451 4.6
      vertex 2.42705 1.76336 6.7
      vertex 3.95701 2.23054 4.6
    endloop
  endfacet
  facet normal 0 -0.803004 0.595974
    outer loop
      vertex -0.477399 -4.54214 4.6
      vertex 0.313585 -2.98357 6.7
      vertex -0.313585 -2.98357 6.7
    endloop
  endfacet
  facet normal 0 -0.803004 0.595974
    outer loop
      vertex 0.313585 -2.98357 6.7
      vertex -0.477399 -4.54214 4.6
      vertex 0.477399 -4.54214 4.6
    endloop
  endfacet
  facet normal -0.695422 0.401502 0.595974
    outer loop
      vertex -3.69491 2.68451 4.6
      vertex -3.95701 2.23054 4.6
      vertex -2.42705 1.76336 6.7
    endloop
  endfacet
  facet normal -0.471994 0.649644 0.595974
    outer loop
      vertex -2.28358 3.95528 4.6
      vertex -2.70767 3.64716 4.6
      vertex -1.5 2.59808 6.7
    endloop
  endfacet
  facet normal -0.596748 0.537315 0.595974
    outer loop
      vertex -3.34415 3.07407 4.6
      vertex -2.00739 2.22943 6.7
      vertex -3.05603 3.39406 4.6
    endloop
  endfacet
  facet normal -0.596748 0.537315 0.595974
    outer loop
      vertex -2.00739 2.22943 6.7
      vertex -3.34415 3.07407 4.6
      vertex -2.42705 1.76336 6.7
    endloop
  endfacet
  facet normal -0.763702 0.248142 0.595974
    outer loop
      vertex -4.30537 1.44811 4.6
      vertex -4.46736 0.949566 4.6
      vertex -2.93444 0.623734 6.7
    endloop
  endfacet
  facet normal 0.326611 0.733581 0.595974
    outer loop
      vertex 1.41133 4.34363 4.6
      vertex 0.927051 2.85317 6.7
      vertex 1.89021 4.13042 4.6
    endloop
  endfacet
  facet normal 0.471994 0.649643 0.595974
    outer loop
      vertex 2.70767 3.64716 4.6
      vertex 2.00739 2.22943 6.7
      vertex 3.05603 3.39406 4.6
    endloop
  endfacet
  facet normal 0.471994 0.649643 0.595974
    outer loop
      vertex 2.00739 2.22943 6.7
      vertex 2.70767 3.64716 4.6
      vertex 1.5 2.59808 6.7
    endloop
  endfacet
  facet normal 0.326611 -0.733581 0.595974
    outer loop
      vertex 1.89021 -4.13042 4.6
      vertex 0.927051 -2.85317 6.7
      vertex 1.41133 -4.34363 4.6
    endloop
  endfacet
  facet normal 0.471994 -0.649644 0.595974
    outer loop
      vertex 2.70767 -3.64716 4.6
      vertex 1.5 -2.59808 6.7
      vertex 2.28358 -3.95528 4.6
    endloop
  endfacet
  facet normal 0.798605 -0.0839371 0.595974
    outer loop
      vertex 4.56716 0 4.6
      vertex 3 0 6.7
      vertex 4.51237 -0.521331 4.6
    endloop
  endfacet
  facet normal 0.798605 -0.0839372 0.595974
    outer loop
      vertex 2.93444 -0.623734 6.7
      vertex 4.51237 -0.521331 4.6
      vertex 3 0 6.7
    endloop
  endfacet
  facet normal 0.798605 -0.0839372 0.595974
    outer loop
      vertex 4.51237 -0.521331 4.6
      vertex 2.93444 -0.623734 6.7
      vertex 4.46736 -0.949566 4.6
    endloop
  endfacet
  facet normal -0.596748 0.537315 0.595974
    outer loop
      vertex -3.34415 3.07407 4.6
      vertex -3.69491 2.68451 4.6
      vertex -2.42705 1.76336 6.7
    endloop
  endfacet
  facet normal -0.326611 0.73358 0.595974
    outer loop
      vertex -1.41133 4.34363 4.6
      vertex -1.89021 4.13042 4.6
      vertex -0.927051 2.85317 6.7
    endloop
  endfacet
  facet normal -0.798605 0.0839371 0.595974
    outer loop
      vertex -4.51237 0.521331 4.6
      vertex -4.56716 0 4.6
      vertex -3 0 6.7
    endloop
  endfacet
  facet normal -0.798605 0.0839372 0.595974
    outer loop
      vertex -4.51237 0.521331 4.6
      vertex -2.93444 0.623734 6.7
      vertex -4.46736 0.949566 4.6
    endloop
  endfacet
  facet normal -0.798605 0.0839372 0.595974
    outer loop
      vertex -2.93444 0.623734 6.7
      vertex -4.51237 0.521331 4.6
      vertex -3 0 6.7
    endloop
  endfacet
  facet normal -0.695422 0.401501 0.595974
    outer loop
      vertex -4.17231 1.85763 4.6
      vertex -2.42705 1.76336 6.7
      vertex -3.95701 2.23054 4.6
    endloop
  endfacet
  facet normal -0.695422 0.401502 0.595974
    outer loop
      vertex -2.42705 1.76336 6.7
      vertex -4.17231 1.85763 4.6
      vertex -2.74064 1.22021 6.7
    endloop
  endfacet
  facet normal -0.695422 -0.401502 0.595974
    outer loop
      vertex -2.42705 -1.76336 6.7
      vertex -3.95701 -2.23054 4.6
      vertex -3.69491 -2.68451 4.6
    endloop
  endfacet
  facet normal -0.798605 -0.0839372 0.595974
    outer loop
      vertex -4.51237 -0.521331 4.6
      vertex -2.93444 -0.623734 6.7
      vertex -3 0 6.7
    endloop
  endfacet
  facet normal -0.798605 -0.0839372 0.595974
    outer loop
      vertex -2.93444 -0.623734 6.7
      vertex -4.51237 -0.521331 4.6
      vertex -4.46736 -0.949566 4.6
    endloop
  endfacet
  facet normal -0.596748 -0.537315 0.595974
    outer loop
      vertex -2.42705 -1.76336 6.7
      vertex -3.69491 -2.68451 4.6
      vertex -3.34415 -3.07407 4.6
    endloop
  endfacet
  facet normal 0.166954 0.785456 0.595974
    outer loop
      vertex 0.477399 4.54214 4.6
      vertex 0.927051 2.85317 6.7
      vertex 0.898584 4.45262 4.6
    endloop
  endfacet
  facet normal 0.166954 0.785456 0.595974
    outer loop
      vertex 0.927051 2.85317 6.7
      vertex 0.477399 4.54214 4.6
      vertex 0.313585 2.98357 6.7
    endloop
  endfacet
  facet normal 0.166954 0.785456 0.595974
    outer loop
      vertex 1.41133 4.34363 4.6
      vertex 0.898584 4.45262 4.6
      vertex 0.927051 2.85317 6.7
    endloop
  endfacet
  facet normal 0.471994 0.649644 0.595974
    outer loop
      vertex 2.28358 3.95528 4.6
      vertex 1.5 2.59808 6.7
      vertex 2.70767 3.64716 4.6
    endloop
  endfacet
  facet normal 0.326611 0.733581 0.595974
    outer loop
      vertex 1.89021 4.13042 4.6
      vertex 1.5 2.59808 6.7
      vertex 2.28358 3.95528 4.6
    endloop
  endfacet
  facet normal 0.326611 0.733581 0.595974
    outer loop
      vertex 1.5 2.59808 6.7
      vertex 1.89021 4.13042 4.6
      vertex 0.927051 2.85317 6.7
    endloop
  endfacet
  facet normal 0.695422 0.401501 0.595974
    outer loop
      vertex 2.42705 1.76336 6.7
      vertex 4.17231 1.85763 4.6
      vertex 3.95701 2.23054 4.6
    endloop
  endfacet
  facet normal 0.695422 0.401502 0.595974
    outer loop
      vertex 4.17231 1.85763 4.6
      vertex 2.42705 1.76336 6.7
      vertex 2.74064 1.22021 6.7
    endloop
  endfacet
  facet normal 0.166954 -0.785456 0.595974
    outer loop
      vertex 0.927051 -2.85317 6.7
      vertex 0.898584 -4.45262 4.6
      vertex 1.41133 -4.34363 4.6
    endloop
  endfacet
  facet normal 0.326611 -0.733581 0.595974
    outer loop
      vertex 1.89021 -4.13042 4.6
      vertex 1.5 -2.59808 6.7
      vertex 0.927051 -2.85317 6.7
    endloop
  endfacet
  facet normal 0.326611 -0.733581 0.595974
    outer loop
      vertex 1.5 -2.59808 6.7
      vertex 1.89021 -4.13042 4.6
      vertex 2.28358 -3.95528 4.6
    endloop
  endfacet
  facet normal 0.596748 -0.537315 0.595974
    outer loop
      vertex 3.69491 -2.68451 4.6
      vertex 2.42705 -1.76336 6.7
      vertex 3.34415 -3.07407 4.6
    endloop
  endfacet
  facet normal 0.695422 -0.401502 0.595974
    outer loop
      vertex 3.95701 -2.23054 4.6
      vertex 2.42705 -1.76336 6.7
      vertex 3.69491 -2.68451 4.6
    endloop
  endfacet
  facet normal -0.326612 0.73358 0.595974
    outer loop
      vertex -1.89021 4.13042 4.6
      vertex -1.5 2.59808 6.7
      vertex -0.927051 2.85317 6.7
    endloop
  endfacet
  facet normal -0.326611 0.73358 0.595974
    outer loop
      vertex -1.5 2.59808 6.7
      vertex -1.89021 4.13042 4.6
      vertex -2.28358 3.95528 4.6
    endloop
  endfacet
  facet normal 0 0.803004 0.595974
    outer loop
      vertex 0.477399 4.54214 4.6
      vertex -0.313585 2.98357 6.7
      vertex 0.313585 2.98357 6.7
    endloop
  endfacet
  facet normal 0 0.803004 0.595974
    outer loop
      vertex -0.313585 2.98357 6.7
      vertex 0.477399 4.54214 4.6
      vertex -0.477399 4.54214 4.6
    endloop
  endfacet
  facet normal -0.166954 0.785456 0.595974
    outer loop
      vertex -0.898584 4.45262 4.6
      vertex -1.41133 4.34363 4.6
      vertex -0.927051 2.85317 6.7
    endloop
  endfacet
  facet normal 0 0 1
    outer loop
      vertex 1.75 0 6.7
      vertex 3 0 6.7
      vertex 2.93444 0.623734 6.7
    endloop
  endfacet
  facet normal 0 0 1
    outer loop
      vertex 1.71176 0.363845 6.7
      vertex 2.93444 0.623734 6.7
      vertex 2.74064 1.22021 6.7
    endloop
  endfacet
  facet normal 0 0 1
    outer loop
      vertex 3 0 6.7
      vertex 1.75 0 6.7
      vertex 2.93444 -0.623734 6.7
    endloop
  endfacet
  facet normal 0 0 1
    outer loop
      vertex 1.5987 0.711788 6.7
      vertex 2.74064 1.22021 6.7
      vertex 2.42705 1.76336 6.7
    endloop
  endfacet
  facet normal -0 0 1
    outer loop
      vertex 1.71176 -0.363845 6.7
      vertex 2.93444 -0.623734 6.7
      vertex 1.75 0 6.7
    endloop
  endfacet
  facet normal 0 0 1
    outer loop
      vertex 1.41578 1.02862 6.7
      vertex 2.42705 1.76336 6.7
      vertex 2.00739 2.22943 6.7
    endloop
  endfacet
  facet normal 0 0 1
    outer loop
      vertex 2.93444 -0.623734 6.7
      vertex 1.71176 -0.363845 6.7
      vertex 2.74064 -1.22021 6.7
    endloop
  endfacet
  facet normal -0 0 1
    outer loop
      vertex 1.5987 -0.711788 6.7
      vertex 2.74064 -1.22021 6.7
      vertex 1.71176 -0.363845 6.7
    endloop
  endfacet
  facet normal 0 0 1
    outer loop
      vertex 2.93444 0.623734 6.7
      vertex 1.71176 0.363845 6.7
      vertex 1.75 0 6.7
    endloop
  endfacet
  facet normal 0 0 1
    outer loop
      vertex 2.74064 1.22021 6.7
      vertex 1.5987 0.711788 6.7
      vertex 1.71176 0.363845 6.7
    endloop
  endfacet
  facet normal 0 0 1
    outer loop
      vertex 1.17098 1.3005 6.7
      vertex 2.00739 2.22943 6.7
      vertex 1.5 2.59808 6.7
    endloop
  endfacet
  facet normal 0 0 1
    outer loop
      vertex 2.42705 1.76336 6.7
      vertex 1.41578 1.02862 6.7
      vertex 1.5987 0.711788 6.7
    endloop
  endfacet
  facet normal 0 0 1
    outer loop
      vertex 2.00739 2.22943 6.7
      vertex 1.17098 1.3005 6.7
      vertex 1.41578 1.02862 6.7
    endloop
  endfacet
  facet normal 0 0 1
    outer loop
      vertex 0.875 1.51554 6.7
      vertex 1.5 2.59808 6.7
      vertex 0.927051 2.85317 6.7
    endloop
  endfacet
  facet normal 0 0 1
    outer loop
      vertex 1.5 2.59808 6.7
      vertex 0.875 1.51554 6.7
      vertex 1.17098 1.3005 6.7
    endloop
  endfacet
  facet normal 0 0 1
    outer loop
      vertex 0.927051 2.85317 6.7
      vertex 0.540779 1.66435 6.7
      vertex 0.875 1.51554 6.7
    endloop
  endfacet
  facet normal 0 0 1
    outer loop
      vertex 0.313585 2.98357 6.7
      vertex 0.540779 1.66435 6.7
      vertex 0.927051 2.85317 6.7
    endloop
  endfacet
  facet normal 0 0 1
    outer loop
      vertex 0.313585 2.98357 6.7
      vertex 0.182924 1.74041 6.7
      vertex 0.540779 1.66435 6.7
    endloop
  endfacet
  facet normal 0 0 1
    outer loop
      vertex 0.313585 2.98357 6.7
      vertex -0.182924 1.74041 6.7
      vertex 0.182924 1.74041 6.7
    endloop
  endfacet
  facet normal -0 0 1
    outer loop
      vertex -0.313585 2.98357 6.7
      vertex -0.182924 1.74041 6.7
      vertex 0.313585 2.98357 6.7
    endloop
  endfacet
  facet normal 0 0 1
    outer loop
      vertex -0.313585 2.98357 6.7
      vertex -0.540779 1.66435 6.7
      vertex -0.182924 1.74041 6.7
    endloop
  endfacet
  facet normal -0 0 1
    outer loop
      vertex -0.927051 2.85317 6.7
      vertex -0.540779 1.66435 6.7
      vertex -0.313585 2.98357 6.7
    endloop
  endfacet
  facet normal 0 0 1
    outer loop
      vertex -0.540779 1.66435 6.7
      vertex -0.927051 2.85317 6.7
      vertex -0.874999 1.51554 6.7
    endloop
  endfacet
  facet normal -0 0 1
    outer loop
      vertex -1.5 2.59808 6.7
      vertex -0.874999 1.51554 6.7
      vertex -0.927051 2.85317 6.7
    endloop
  endfacet
  facet normal 0 0 1
    outer loop
      vertex -0.874999 1.51554 6.7
      vertex -1.5 2.59808 6.7
      vertex -1.17098 1.3005 6.7
    endloop
  endfacet
  facet normal -0 0 1
    outer loop
      vertex -2.00739 2.22943 6.7
      vertex -1.17098 1.3005 6.7
      vertex -1.5 2.59808 6.7
    endloop
  endfacet
  facet normal 0 0 1
    outer loop
      vertex -1.17098 1.3005 6.7
      vertex -2.00739 2.22943 6.7
      vertex -1.41578 1.02862 6.7
    endloop
  endfacet
  facet normal -0 0 1
    outer loop
      vertex -2.42705 1.76336 6.7
      vertex -1.41578 1.02862 6.7
      vertex -2.00739 2.22943 6.7
    endloop
  endfacet
  facet normal 0 0 1
    outer loop
      vertex -1.41578 1.02862 6.7
      vertex -2.42705 1.76336 6.7
      vertex -1.5987 0.711788 6.7
    endloop
  endfacet
  facet normal -0 0 1
    outer loop
      vertex -2.74064 1.22021 6.7
      vertex -1.5987 0.711788 6.7
      vertex -2.42705 1.76336 6.7
    endloop
  endfacet
  facet normal 0 0 1
    outer loop
      vertex 2.74064 -1.22021 6.7
      vertex 1.5987 -0.711788 6.7
      vertex 2.42705 -1.76336 6.7
    endloop
  endfacet
  facet normal -0 0 1
    outer loop
      vertex 1.41578 -1.02862 6.7
      vertex 2.42705 -1.76336 6.7
      vertex 1.5987 -0.711788 6.7
    endloop
  endfacet
  facet normal 0 0 1
    outer loop
      vertex 2.42705 -1.76336 6.7
      vertex 1.41578 -1.02862 6.7
      vertex 2.00739 -2.22943 6.7
    endloop
  endfacet
  facet normal -0 0 1
    outer loop
      vertex 1.17098 -1.3005 6.7
      vertex 2.00739 -2.22943 6.7
      vertex 1.41578 -1.02862 6.7
    endloop
  endfacet
  facet normal 0 0 1
    outer loop
      vertex 2.00739 -2.22943 6.7
      vertex 1.17098 -1.3005 6.7
      vertex 1.5 -2.59808 6.7
    endloop
  endfacet
  facet normal -0 0 1
    outer loop
      vertex 0.875 -1.51554 6.7
      vertex 1.5 -2.59808 6.7
      vertex 1.17098 -1.3005 6.7
    endloop
  endfacet
  facet normal 0 0 1
    outer loop
      vertex 1.5 -2.59808 6.7
      vertex 0.875 -1.51554 6.7
      vertex 0.927051 -2.85317 6.7
    endloop
  endfacet
  facet normal -0 0 1
    outer loop
      vertex 0.540779 -1.66435 6.7
      vertex 0.927051 -2.85317 6.7
      vertex 0.875 -1.51554 6.7
    endloop
  endfacet
  facet normal 0 0 1
    outer loop
      vertex 0.540779 -1.66435 6.7
      vertex 0.313585 -2.98357 6.7
      vertex 0.927051 -2.85317 6.7
    endloop
  endfacet
  facet normal -0 0 1
    outer loop
      vertex 0.182924 -1.74041 6.7
      vertex 0.313585 -2.98357 6.7
      vertex 0.540779 -1.66435 6.7
    endloop
  endfacet
  facet normal -0 0 1
    outer loop
      vertex -0.182924 -1.74041 6.7
      vertex 0.313585 -2.98357 6.7
      vertex 0.182924 -1.74041 6.7
    endloop
  endfacet
  facet normal 0 0 1
    outer loop
      vertex -0.182924 -1.74041 6.7
      vertex -0.313585 -2.98357 6.7
      vertex 0.313585 -2.98357 6.7
    endloop
  endfacet
  facet normal 0 0 1
    outer loop
      vertex -0.540779 -1.66435 6.7
      vertex -0.313585 -2.98357 6.7
      vertex -0.182924 -1.74041 6.7
    endloop
  endfacet
  facet normal 0 0 1
    outer loop
      vertex -0.927051 -2.85317 6.7
      vertex -0.540779 -1.66435 6.7
      vertex -0.875 -1.51554 6.7
    endloop
  endfacet
  facet normal 0 0 1
    outer loop
      vertex -0.540779 -1.66435 6.7
      vertex -0.927051 -2.85317 6.7
      vertex -0.313585 -2.98357 6.7
    endloop
  endfacet
  facet normal 0 0 1
    outer loop
      vertex -1.5 -2.59808 6.7
      vertex -0.875 -1.51554 6.7
      vertex -1.17098 -1.3005 6.7
    endloop
  endfacet
  facet normal 0 0 1
    outer loop
      vertex -2.00739 -2.22943 6.7
      vertex -1.17098 -1.3005 6.7
      vertex -1.41578 -1.02862 6.7
    endloop
  endfacet
  facet normal 0 0 1
    outer loop
      vertex -0.875 -1.51554 6.7
      vertex -1.5 -2.59808 6.7
      vertex -0.927051 -2.85317 6.7
    endloop
  endfacet
  facet normal 0 0 1
    outer loop
      vertex -2.42705 -1.76336 6.7
      vertex -1.41578 -1.02862 6.7
      vertex -1.5987 -0.711788 6.7
    endloop
  endfacet
  facet normal 0 0 1
    outer loop
      vertex -2.74064 -1.22021 6.7
      vertex -1.5987 -0.711788 6.7
      vertex -1.71176 -0.363845 6.7
    endloop
  endfacet
  facet normal 0 0 1
    outer loop
      vertex -2.93444 -0.623734 6.7
      vertex -1.71176 -0.363845 6.7
      vertex -1.75 0 6.7
    endloop
  endfacet
  facet normal 0 0 1
    outer loop
      vertex -1.5987 0.711788 6.7
      vertex -2.74064 1.22021 6.7
      vertex -1.71176 0.363845 6.7
    endloop
  endfacet
  facet normal 0 0 1
    outer loop
      vertex -1.17098 -1.3005 6.7
      vertex -2.00739 -2.22943 6.7
      vertex -1.5 -2.59808 6.7
    endloop
  endfacet
  facet normal -0 0 1
    outer loop
      vertex -2.93444 0.623734 6.7
      vertex -1.71176 0.363845 6.7
      vertex -2.74064 1.22021 6.7
    endloop
  endfacet
  facet normal 0 0 1
    outer loop
      vertex -1.41578 -1.02862 6.7
      vertex -2.42705 -1.76336 6.7
      vertex -2.00739 -2.22943 6.7
    endloop
  endfacet
  facet normal 0 0 1
    outer loop
      vertex -1.71176 0.363845 6.7
      vertex -2.93444 0.623734 6.7
      vertex -1.75 0 6.7
    endloop
  endfacet
  facet normal 0 0 1
    outer loop
      vertex -1.5987 -0.711788 6.7
      vertex -2.74064 -1.22021 6.7
      vertex -2.42705 -1.76336 6.7
    endloop
  endfacet
  facet normal 0 0 1
    outer loop
      vertex -3 0 6.7
      vertex -1.75 0 6.7
      vertex -2.93444 0.623734 6.7
    endloop
  endfacet
  facet normal 0 0 1
    outer loop
      vertex -1.71176 -0.363845 6.7
      vertex -2.93444 -0.623734 6.7
      vertex -2.74064 -1.22021 6.7
    endloop
  endfacet
  facet normal 0 0 1
    outer loop
      vertex -1.75 0 6.7
      vertex -3 0 6.7
      vertex -2.93444 -0.623734 6.7
    endloop
  endfacet
  facet normal -0.763702 0.248142 0.595974
    outer loop
      vertex -4.30537 1.44811 4.6
      vertex -2.74064 1.22021 6.7
      vertex -4.17231 1.85763 4.6
    endloop
  endfacet
  facet normal -0.763702 0.248142 0.595974
    outer loop
      vertex -2.74064 1.22021 6.7
      vertex -4.30537 1.44811 4.6
      vertex -2.93444 0.623734 6.7
    endloop
  endfacet
  facet normal -0.763702 -0.248142 0.595974
    outer loop
      vertex -2.93444 -0.623734 6.7
      vertex -4.46736 -0.949566 4.6
      vertex -4.30537 -1.44811 4.6
    endloop
  endfacet
  facet normal -0.695422 -0.401502 0.595974
    outer loop
      vertex -4.17231 -1.85763 4.6
      vertex -2.42705 -1.76336 6.7
      vertex -2.74064 -1.22021 6.7
    endloop
  endfacet
  facet normal -0.695422 -0.401501 0.595974
    outer loop
      vertex -2.42705 -1.76336 6.7
      vertex -4.17231 -1.85763 4.6
      vertex -3.95701 -2.23054 4.6
    endloop
  endfacet
  facet normal -0.326611 -0.733581 0.595974
    outer loop
      vertex -0.927051 -2.85317 6.7
      vertex -1.89021 -4.13042 4.6
      vertex -1.41133 -4.34363 4.6
    endloop
  endfacet
  facet normal -0.166954 -0.785456 0.595974
    outer loop
      vertex -0.477399 -4.54214 4.6
      vertex -0.927051 -2.85317 6.7
      vertex -0.898584 -4.45262 4.6
    endloop
  endfacet
  facet normal -0.166954 -0.785456 0.595974
    outer loop
      vertex -0.927051 -2.85317 6.7
      vertex -0.477399 -4.54214 4.6
      vertex -0.313585 -2.98357 6.7
    endloop
  endfacet
  facet normal -0.471994 -0.649643 0.595974
    outer loop
      vertex -2.70767 -3.64716 4.6
      vertex -2.00739 -2.22943 6.7
      vertex -3.05603 -3.39406 4.6
    endloop
  endfacet
  facet normal -0.471994 -0.649643 0.595974
    outer loop
      vertex -2.00739 -2.22943 6.7
      vertex -2.70767 -3.64716 4.6
      vertex -1.5 -2.59808 6.7
    endloop
  endfacet
  facet normal 0.798605 0.0839372 0.595974
    outer loop
      vertex 2.93444 0.623734 6.7
      vertex 4.51237 0.521331 4.6
      vertex 4.46736 0.949566 4.6
    endloop
  endfacet
  facet normal 0.798605 0.0839372 0.595974
    outer loop
      vertex 4.51237 0.521331 4.6
      vertex 2.93444 0.623734 6.7
      vertex 3 0 6.7
    endloop
  endfacet
  facet normal 0.763702 0.248142 0.595974
    outer loop
      vertex 4.30537 1.44811 4.6
      vertex 2.93444 0.623734 6.7
      vertex 4.46736 0.949566 4.6
    endloop
  endfacet
  facet normal 0.596748 0.537315 0.595974
    outer loop
      vertex 3.34415 3.07407 4.6
      vertex 2.42705 1.76336 6.7
      vertex 3.69491 2.68451 4.6
    endloop
  endfacet
  facet normal 0.596748 0.537315 0.595974
    outer loop
      vertex 2.00739 2.22943 6.7
      vertex 3.34415 3.07407 4.6
      vertex 3.05603 3.39406 4.6
    endloop
  endfacet
  facet normal 0.596748 0.537315 0.595974
    outer loop
      vertex 3.34415 3.07407 4.6
      vertex 2.00739 2.22943 6.7
      vertex 2.42705 1.76336 6.7
    endloop
  endfacet
  facet normal 0.471994 -0.649643 0.595974
    outer loop
      vertex 2.70767 -3.64716 4.6
      vertex 2.00739 -2.22943 6.7
      vertex 1.5 -2.59808 6.7
    endloop
  endfacet
  facet normal 0.471994 -0.649643 0.595974
    outer loop
      vertex 2.00739 -2.22943 6.7
      vertex 2.70767 -3.64716 4.6
      vertex 3.05603 -3.39406 4.6
    endloop
  endfacet
  facet normal -0.471994 0.649644 0.595974
    outer loop
      vertex -2.70767 3.64716 4.6
      vertex -2.00739 2.22943 6.7
      vertex -1.5 2.59808 6.7
    endloop
  endfacet
  facet normal -0.471994 0.649644 0.595974
    outer loop
      vertex -2.00739 2.22943 6.7
      vertex -2.70767 3.64716 4.6
      vertex -3.05603 3.39406 4.6
    endloop
  endfacet
  facet normal -0.166954 0.785456 0.595974
    outer loop
      vertex -0.477399 4.54214 4.6
      vertex -0.927051 2.85317 6.7
      vertex -0.313585 2.98357 6.7
    endloop
  endfacet
  facet normal -0.166954 0.785456 0.595974
    outer loop
      vertex -0.927051 2.85317 6.7
      vertex -0.477399 4.54214 4.6
      vertex -0.898584 4.45262 4.6
    endloop
  endfacet
  facet normal -0.763702 -0.248142 0.595974
    outer loop
      vertex -4.30537 -1.44811 4.6
      vertex -2.74064 -1.22021 6.7
      vertex -2.93444 -0.623734 6.7
    endloop
  endfacet
  facet normal -0.763702 -0.248142 0.595974
    outer loop
      vertex -2.74064 -1.22021 6.7
      vertex -4.30537 -1.44811 4.6
      vertex -4.17231 -1.85763 4.6
    endloop
  endfacet
  facet normal -0.166954 -0.785456 0.595974
    outer loop
      vertex -0.927051 -2.85317 6.7
      vertex -1.41133 -4.34363 4.6
      vertex -0.898584 -4.45262 4.6
    endloop
  endfacet
  facet normal -0.471994 -0.649644 0.595974
    outer loop
      vertex -1.5 -2.59808 6.7
      vertex -2.70767 -3.64716 4.6
      vertex -2.28358 -3.95528 4.6
    endloop
  endfacet
  facet normal -0.326611 -0.733581 0.595974
    outer loop
      vertex -1.89021 -4.13042 4.6
      vertex -1.5 -2.59808 6.7
      vertex -2.28358 -3.95528 4.6
    endloop
  endfacet
  facet normal -0.326611 -0.733581 0.595974
    outer loop
      vertex -1.5 -2.59808 6.7
      vertex -1.89021 -4.13042 4.6
      vertex -0.927051 -2.85317 6.7
    endloop
  endfacet
  facet normal 0.596748 -0.537315 0.595974
    outer loop
      vertex 2.00739 -2.22943 6.7
      vertex 3.34415 -3.07407 4.6
      vertex 2.42705 -1.76336 6.7
    endloop
  endfacet
  facet normal 0.596748 -0.537315 0.595974
    outer loop
      vertex 3.34415 -3.07407 4.6
      vertex 2.00739 -2.22943 6.7
      vertex 3.05603 -3.39406 4.6
    endloop
  endfacet
  facet normal 0.695422 -0.401502 0.595974
    outer loop
      vertex 2.42705 -1.76336 6.7
      vertex 4.17231 -1.85763 4.6
      vertex 2.74064 -1.22021 6.7
    endloop
  endfacet
  facet normal 0.695422 -0.401501 0.595974
    outer loop
      vertex 4.17231 -1.85763 4.6
      vertex 2.42705 -1.76336 6.7
      vertex 3.95701 -2.23054 4.6
    endloop
  endfacet
  facet normal 0.763702 -0.248142 0.595974
    outer loop
      vertex 2.74064 -1.22021 6.7
      vertex 4.30537 -1.44811 4.6
      vertex 2.93444 -0.623734 6.7
    endloop
  endfacet
  facet normal 0.763702 -0.248142 0.595974
    outer loop
      vertex 4.30537 -1.44811 4.6
      vertex 2.74064 -1.22021 6.7
      vertex 4.17231 -1.85763 4.6
    endloop
  endfacet
  facet normal 0.166954 -0.785456 0.595974
    outer loop
      vertex 0.477399 -4.54214 4.6
      vertex 0.927051 -2.85317 6.7
      vertex 0.313585 -2.98357 6.7
    endloop
  endfacet
  facet normal 0.166954 -0.785456 0.595974
    outer loop
      vertex 0.927051 -2.85317 6.7
      vertex 0.477399 -4.54214 4.6
      vertex 0.898584 -4.45262 4.6
    endloop
  endfacet
  facet normal -0.596748 -0.537315 0.595974
    outer loop
      vertex -3.34415 -3.07407 4.6
      vertex -2.00739 -2.22943 6.7
      vertex -2.42705 -1.76336 6.7
    endloop
  endfacet
  facet normal -0.596748 -0.537315 0.595974
    outer loop
      vertex -2.00739 -2.22943 6.7
      vertex -3.34415 -3.07407 4.6
      vertex -3.05603 -3.39406 4.6
    endloop
  endfacet
  facet normal -0.994522 -0.10453 0
    outer loop
      vertex 1.75 0 0
      vertex 1.71176 0.363845 6.7
      vertex 1.71176 0.363845 0
    endloop
  endfacet
  facet normal -0.994522 -0.10453 0
    outer loop
      vertex 1.71176 0.363845 6.7
      vertex 1.75 0 0
      vertex 1.75 0 6.7
    endloop
  endfacet
  facet normal 0.994522 -0.10453 0
    outer loop
      vertex -1.75 0 6.7
      vertex -1.71176 0.363845 0
      vertex -1.71176 0.363845 6.7
    endloop
  endfacet
  facet normal 0.994522 -0.10453 0
    outer loop
      vertex -1.71176 0.363845 0
      vertex -1.75 0 6.7
      vertex -1.75 0 0
    endloop
  endfacet
  facet normal 0 -1 0
    outer loop
      vertex -0.182924 1.74041 0
      vertex 0.182924 1.74041 6.7
      vertex -0.182924 1.74041 6.7
    endloop
  endfacet
  facet normal 0 -1 -0
    outer loop
      vertex 0.182924 1.74041 6.7
      vertex -0.182924 1.74041 0
      vertex 0.182924 1.74041 0
    endloop
  endfacet
  facet normal -0.587786 -0.809017 0
    outer loop
      vertex 0.875 1.51554 0
      vertex 1.17098 1.3005 6.7
      vertex 0.875 1.51554 6.7
    endloop
  endfacet
  facet normal -0.587786 -0.809017 -0
    outer loop
      vertex 1.17098 1.3005 6.7
      vertex 0.875 1.51554 0
      vertex 1.17098 1.3005 0
    endloop
  endfacet
  facet normal -0.406737 -0.913546 0
    outer loop
      vertex 0.540779 1.66435 0
      vertex 0.875 1.51554 6.7
      vertex 0.540779 1.66435 6.7
    endloop
  endfacet
  facet normal -0.406737 -0.913546 -0
    outer loop
      vertex 0.875 1.51554 6.7
      vertex 0.540779 1.66435 0
      vertex 0.875 1.51554 0
    endloop
  endfacet
  facet normal 0.587784 -0.809018 0
    outer loop
      vertex -1.17098 1.3005 0
      vertex -0.874999 1.51554 6.7
      vertex -1.17098 1.3005 6.7
    endloop
  endfacet
  facet normal 0.587784 -0.809018 0
    outer loop
      vertex -0.874999 1.51554 6.7
      vertex -1.17098 1.3005 0
      vertex -0.874999 1.51554 0
    endloop
  endfacet
  facet normal 0.207911 -0.978148 0
    outer loop
      vertex -0.540779 1.66435 0
      vertex -0.182924 1.74041 6.7
      vertex -0.540779 1.66435 6.7
    endloop
  endfacet
  facet normal 0.207911 -0.978148 0
    outer loop
      vertex -0.182924 1.74041 6.7
      vertex -0.540779 1.66435 0
      vertex -0.182924 1.74041 0
    endloop
  endfacet
  facet normal -0.866025 -0.5 0
    outer loop
      vertex 1.5987 0.711788 0
      vertex 1.41578 1.02862 6.7
      vertex 1.41578 1.02862 0
    endloop
  endfacet
  facet normal -0.866025 -0.5 0
    outer loop
      vertex 1.41578 1.02862 6.7
      vertex 1.5987 0.711788 0
      vertex 1.5987 0.711788 6.7
    endloop
  endfacet
  facet normal -0.951057 -0.309016 0
    outer loop
      vertex 1.71176 0.363845 0
      vertex 1.5987 0.711788 6.7
      vertex 1.5987 0.711788 0
    endloop
  endfacet
  facet normal -0.951057 -0.309016 0
    outer loop
      vertex 1.5987 0.711788 6.7
      vertex 1.71176 0.363845 0
      vertex 1.71176 0.363845 6.7
    endloop
  endfacet
  facet normal -0.743146 -0.66913 0
    outer loop
      vertex 1.41578 1.02862 0
      vertex 1.17098 1.3005 6.7
      vertex 1.17098 1.3005 0
    endloop
  endfacet
  facet normal -0.743146 -0.66913 0
    outer loop
      vertex 1.17098 1.3005 6.7
      vertex 1.41578 1.02862 0
      vertex 1.41578 1.02862 6.7
    endloop
  endfacet
  facet normal -0.207911 -0.978148 0
    outer loop
      vertex 0.182924 1.74041 0
      vertex 0.540779 1.66435 6.7
      vertex 0.182924 1.74041 6.7
    endloop
  endfacet
  facet normal -0.207911 -0.978148 -0
    outer loop
      vertex 0.540779 1.66435 6.7
      vertex 0.182924 1.74041 0
      vertex 0.540779 1.66435 0
    endloop
  endfacet
  facet normal 0.866025 -0.5 0
    outer loop
      vertex -1.5987 0.711788 6.7
      vertex -1.41578 1.02862 0
      vertex -1.41578 1.02862 6.7
    endloop
  endfacet
  facet normal 0.866025 -0.5 0
    outer loop
      vertex -1.41578 1.02862 0
      vertex -1.5987 0.711788 6.7
      vertex -1.5987 0.711788 0
    endloop
  endfacet
  facet normal 0.743146 -0.66913 0
    outer loop
      vertex -1.41578 1.02862 6.7
      vertex -1.17098 1.3005 0
      vertex -1.17098 1.3005 6.7
    endloop
  endfacet
  facet normal 0.743146 -0.66913 0
    outer loop
      vertex -1.17098 1.3005 0
      vertex -1.41578 1.02862 6.7
      vertex -1.41578 1.02862 0
    endloop
  endfacet
  facet normal 0.951057 -0.309016 0
    outer loop
      vertex -1.71176 0.363845 6.7
      vertex -1.5987 0.711788 0
      vertex -1.5987 0.711788 6.7
    endloop
  endfacet
  facet normal 0.951057 -0.309016 0
    outer loop
      vertex -1.5987 0.711788 0
      vertex -1.71176 0.363845 6.7
      vertex -1.71176 0.363845 0
    endloop
  endfacet
  facet normal 0.406737 -0.913545 0
    outer loop
      vertex -0.874999 1.51554 0
      vertex -0.540779 1.66435 6.7
      vertex -0.874999 1.51554 6.7
    endloop
  endfacet
  facet normal 0.406737 -0.913545 0
    outer loop
      vertex -0.540779 1.66435 6.7
      vertex -0.874999 1.51554 0
      vertex -0.540779 1.66435 0
    endloop
  endfacet
  facet normal -0.994522 0.10453 0
    outer loop
      vertex 1.71176 -0.363845 0
      vertex 1.75 0 6.7
      vertex 1.75 0 0
    endloop
  endfacet
  facet normal -0.994522 0.10453 0
    outer loop
      vertex 1.75 0 6.7
      vertex 1.71176 -0.363845 0
      vertex 1.71176 -0.363845 6.7
    endloop
  endfacet
  facet normal 0.207911 0.978148 -0
    outer loop
      vertex -0.182924 -1.74041 0
      vertex -0.540779 -1.66435 6.7
      vertex -0.182924 -1.74041 6.7
    endloop
  endfacet
  facet normal 0.207911 0.978148 0
    outer loop
      vertex -0.540779 -1.66435 6.7
      vertex -0.182924 -1.74041 0
      vertex -0.540779 -1.66435 0
    endloop
  endfacet
  facet normal -0.207911 0.978148 0
    outer loop
      vertex 0.540779 -1.66435 0
      vertex 0.182924 -1.74041 6.7
      vertex 0.540779 -1.66435 6.7
    endloop
  endfacet
  facet normal -0.207911 0.978148 0
    outer loop
      vertex 0.182924 -1.74041 6.7
      vertex 0.540779 -1.66435 0
      vertex 0.182924 -1.74041 0
    endloop
  endfacet
  facet normal -0.743146 0.66913 0
    outer loop
      vertex 1.17098 -1.3005 0
      vertex 1.41578 -1.02862 6.7
      vertex 1.41578 -1.02862 0
    endloop
  endfacet
  facet normal -0.743146 0.66913 0
    outer loop
      vertex 1.41578 -1.02862 6.7
      vertex 1.17098 -1.3005 0
      vertex 1.17098 -1.3005 6.7
    endloop
  endfacet
  facet normal -0.951057 0.309016 0
    outer loop
      vertex 1.5987 -0.711788 0
      vertex 1.71176 -0.363845 6.7
      vertex 1.71176 -0.363845 0
    endloop
  endfacet
  facet normal -0.951057 0.309016 0
    outer loop
      vertex 1.71176 -0.363845 6.7
      vertex 1.5987 -0.711788 0
      vertex 1.5987 -0.711788 6.7
    endloop
  endfacet
  facet normal -0.866025 0.5 0
    outer loop
      vertex 1.41578 -1.02862 0
      vertex 1.5987 -0.711788 6.7
      vertex 1.5987 -0.711788 0
    endloop
  endfacet
  facet normal -0.866025 0.5 0
    outer loop
      vertex 1.5987 -0.711788 6.7
      vertex 1.41578 -1.02862 0
      vertex 1.41578 -1.02862 6.7
    endloop
  endfacet
  facet normal 0.866025 0.5 0
    outer loop
      vertex -1.41578 -1.02862 6.7
      vertex -1.5987 -0.711788 0
      vertex -1.5987 -0.711788 6.7
    endloop
  endfacet
  facet normal 0.866025 0.5 0
    outer loop
      vertex -1.5987 -0.711788 0
      vertex -1.41578 -1.02862 6.7
      vertex -1.41578 -1.02862 0
    endloop
  endfacet
  facet normal 0.994522 0.10453 0
    outer loop
      vertex -1.71176 -0.363845 6.7
      vertex -1.75 0 0
      vertex -1.75 0 6.7
    endloop
  endfacet
  facet normal 0.994522 0.10453 0
    outer loop
      vertex -1.75 0 0
      vertex -1.71176 -0.363845 6.7
      vertex -1.71176 -0.363845 0
    endloop
  endfacet
  facet normal 0.951057 0.309016 0
    outer loop
      vertex -1.5987 -0.711788 6.7
      vertex -1.71176 -0.363845 0
      vertex -1.71176 -0.363845 6.7
    endloop
  endfacet
  facet normal 0.951057 0.309016 0
    outer loop
      vertex -1.71176 -0.363845 0
      vertex -1.5987 -0.711788 6.7
      vertex -1.5987 -0.711788 0
    endloop
  endfacet
  facet normal -0.587786 0.809017 0
    outer loop
      vertex 1.17098 -1.3005 0
      vertex 0.875 -1.51554 6.7
      vertex 1.17098 -1.3005 6.7
    endloop
  endfacet
  facet normal -0.587786 0.809017 0
    outer loop
      vertex 0.875 -1.51554 6.7
      vertex 1.17098 -1.3005 0
      vertex 0.875 -1.51554 0
    endloop
  endfacet
  facet normal -0.406737 0.913546 0
    outer loop
      vertex 0.875 -1.51554 0
      vertex 0.540779 -1.66435 6.7
      vertex 0.875 -1.51554 6.7
    endloop
  endfacet
  facet normal -0.406737 0.913546 0
    outer loop
      vertex 0.540779 -1.66435 6.7
      vertex 0.875 -1.51554 0
      vertex 0.540779 -1.66435 0
    endloop
  endfacet
  facet normal 0 1 -0
    outer loop
      vertex 0.182924 -1.74041 0
      vertex -0.182924 -1.74041 6.7
      vertex 0.182924 -1.74041 6.7
    endloop
  endfacet
  facet normal 0 1 0
    outer loop
      vertex -0.182924 -1.74041 6.7
      vertex 0.182924 -1.74041 0
      vertex -0.182924 -1.74041 0
    endloop
  endfacet
  facet normal 0.587786 0.809017 -0
    outer loop
      vertex -0.875 -1.51554 0
      vertex -1.17098 -1.3005 6.7
      vertex -0.875 -1.51554 6.7
    endloop
  endfacet
  facet normal 0.587786 0.809017 0
    outer loop
      vertex -1.17098 -1.3005 6.7
      vertex -0.875 -1.51554 0
      vertex -1.17098 -1.3005 0
    endloop
  endfacet
  facet normal 0.406737 0.913546 -0
    outer loop
      vertex -0.540779 -1.66435 0
      vertex -0.875 -1.51554 6.7
      vertex -0.540779 -1.66435 6.7
    endloop
  endfacet
  facet normal 0.406737 0.913546 0
    outer loop
      vertex -0.875 -1.51554 6.7
      vertex -0.540779 -1.66435 0
      vertex -0.875 -1.51554 0
    endloop
  endfacet
  facet normal 0.743146 0.66913 0
    outer loop
      vertex -1.17098 -1.3005 6.7
      vertex -1.41578 -1.02862 0
      vertex -1.41578 -1.02862 6.7
    endloop
  endfacet
  facet normal 0.743146 0.66913 0
    outer loop
      vertex -1.41578 -1.02862 0
      vertex -1.17098 -1.3005 6.7
      vertex -1.17098 -1.3005 0
    endloop
  endfacet
endsolid OpenSCAD_Model
