solid OpenSCAD_Model
  facet normal -1 0 0
    outer loop
      vertex 0 0 0
      vertex 0 132 15
      vertex 0 132 0
    endloop
  endfacet
  facet normal -1 -0 0
    outer loop
      vertex 0 132 15
      vertex 0 0 0
      vertex 0 0 15
    endloop
  endfacet
  facet normal -0 0 1
    outer loop
      vertex 0 132 15
      vertex 1.4 0 15
      vertex 1.4 132 15
    endloop
  endfacet
  facet normal 0 0 1
    outer loop
      vertex 1.4 0 15
      vertex 0 132 15
      vertex 0 0 15
    endloop
  endfacet
  facet normal -0 0 1
    outer loop
      vertex 4.6 132 15
      vertex 6 0 15
      vertex 6 132 15
    endloop
  endfacet
  facet normal 0 0 1
    outer loop
      vertex 6 0 15
      vertex 4.6 132 15
      vertex 4.6 0 15
    endloop
  endfacet
  facet normal 1 -0 0
    outer loop
      vertex 6 0 15
      vertex 6 132 0
      vertex 6 132 15
    endloop
  endfacet
  facet normal 1 0 0
    outer loop
      vertex 6 132 0
      vertex 6 0 15
      vertex 6 0 0
    endloop
  endfacet
  facet normal 0 1 0
    outer loop
      vertex 6 132 15
      vertex 4.6 132 6
      vertex 4.6 132 15
    endloop
  endfacet
  facet normal 0 1 0
    outer loop
      vertex 4.6 132 6
      vertex 6 132 0
      vertex 1.4 132 6
    endloop
  endfacet
  facet normal 0 1 -0
    outer loop
      vertex 6 132 0
      vertex 4.6 132 6
      vertex 6 132 15
    endloop
  endfacet
  facet normal 0 1 -0
    outer loop
      vertex 1.4 132 6
      vertex 0 132 15
      vertex 1.4 132 15
    endloop
  endfacet
  facet normal 0 1 0
    outer loop
      vertex 1.4 132 6
      vertex 0 132 0
      vertex 0 132 15
    endloop
  endfacet
  facet normal 0 1 0
    outer loop
      vertex 0 132 0
      vertex 1.4 132 6
      vertex 6 132 0
    endloop
  endfacet
  facet normal 0 0 -1
    outer loop
      vertex 0 0 0
      vertex 6 132 0
      vertex 6 0 0
    endloop
  endfacet
  facet normal -0 0 -1
    outer loop
      vertex 6 132 0
      vertex 0 0 0
      vertex 0 132 0
    endloop
  endfacet
  facet normal 0 -1 0
    outer loop
      vertex 0 0 15
      vertex 1.4 0 6
      vertex 1.4 0 15
    endloop
  endfacet
  facet normal 0 -1 -0
    outer loop
      vertex 1.4 0 6
      vertex 0 0 0
      vertex 4.6 0 6
    endloop
  endfacet
  facet normal 0 -1 0
    outer loop
      vertex 0 0 0
      vertex 1.4 0 6
      vertex 0 0 15
    endloop
  endfacet
  facet normal 0 -1 0
    outer loop
      vertex 4.6 0 6
      vertex 6 0 15
      vertex 4.6 0 15
    endloop
  endfacet
  facet normal 0 -1 0
    outer loop
      vertex 4.6 0 6
      vertex 6 0 0
      vertex 6 0 15
    endloop
  endfacet
  facet normal 0 -1 0
    outer loop
      vertex 6 0 0
      vertex 4.6 0 6
      vertex 0 0 0
    endloop
  endfacet
  facet normal 1 -0 0
    outer loop
      vertex 1.4 0 15
      vertex 1.4 132 6
      vertex 1.4 132 15
    endloop
  endfacet
  facet normal 1 0 0
    outer loop
      vertex 1.4 132 6
      vertex 1.4 0 15
      vertex 1.4 0 6
    endloop
  endfacet
  facet normal -1 0 0
    outer loop
      vertex 4.6 0 6
      vertex 4.6 132 15
      vertex 4.6 132 6
    endloop
  endfacet
  facet normal -1 -0 0
    outer loop
      vertex 4.6 132 15
      vertex 4.6 0 6
      vertex 4.6 0 15
    endloop
  endfacet
  facet normal -0 0 1
    outer loop
      vertex 1.4 132 6
      vertex 4.6 0 6
      vertex 4.6 132 6
    endloop
  endfacet
  facet normal 0 0 1
    outer loop
      vertex 4.6 0 6
      vertex 1.4 132 6
      vertex 1.4 0 6
    endloop
  endfacet
endsolid OpenSCAD_Model
