solid OpenSCAD_Model
  facet normal 0 0 1
    outer loop
      vertex 22.8218 25 14.85
      vertex 7.65474 0 14.85
      vertex 30.237 0 14.85
    endloop
  endfacet
  facet normal 0 -0 1
    outer loop
      vertex 7.65474 0 14.85
      vertex 22.8218 25 14.85
      vertex 0.239488 25 14.85
    endloop
  endfacet
  facet normal 0 0 1
    outer loop
      vertex 73.2538 25 14.85
      vertex 58.0868 0 14.85
      vertex 80.6691 0 14.85
    endloop
  endfacet
  facet normal 0 -0 1
    outer loop
      vertex 58.0868 0 14.85
      vertex 73.2538 25 14.85
      vertex 50.6715 25 14.85
    endloop
  endfacet
  facet normal -0.958716 -0.284365 0
    outer loop
      vertex 30.237 0 14.85
      vertex 22.8218 25 18
      vertex 22.8218 25 14.85
    endloop
  endfacet
  facet normal -0.958716 -0.284365 0
    outer loop
      vertex 22.8218 25 18
      vertex 30.237 0 14.85
      vertex 30.237 0 18
    endloop
  endfacet
  facet normal 0.958716 0.284365 0
    outer loop
      vertex 58.0868 0 18
      vertex 50.6715 25 14.85
      vertex 50.6715 25 18
    endloop
  endfacet
  facet normal 0.958716 0.284365 0
    outer loop
      vertex 50.6715 25 14.85
      vertex 58.0868 0 18
      vertex 58.0868 0 14.85
    endloop
  endfacet
  facet normal -0.958716 -0.284365 0
    outer loop
      vertex 7.65474 0 0
      vertex 0.239488 25 14.85
      vertex 0.239488 25 0
    endloop
  endfacet
  facet normal -0.958716 -0.284365 0
    outer loop
      vertex 0.239488 25 14.85
      vertex 7.65474 0 0
      vertex 7.65474 0 14.85
    endloop
  endfacet
  facet normal 0 0 1
    outer loop
      vertex 50.6715 25 18
      vertex 30.237 0 18
      vertex 58.0868 0 18
    endloop
  endfacet
  facet normal 0 -0 1
    outer loop
      vertex 30.237 0 18
      vertex 50.6715 25 18
      vertex 22.8218 25 18
    endloop
  endfacet
  facet normal 0.958716 0.284365 0
    outer loop
      vertex 80.6691 0 14.85
      vertex 73.2538 25 0
      vertex 73.2538 25 14.85
    endloop
  endfacet
  facet normal 0.958716 0.284365 0
    outer loop
      vertex 73.2538 25 0
      vertex 80.6691 0 14.85
      vertex 80.6691 0 0
    endloop
  endfacet
  facet normal 0 0 -1
    outer loop
      vertex 7.65474 0 0
      vertex 73.2538 25 0
      vertex 80.6691 0 0
    endloop
  endfacet
  facet normal -0 0 -1
    outer loop
      vertex 73.2538 25 0
      vertex 7.65474 0 0
      vertex 0.239488 25 0
    endloop
  endfacet
  facet normal -0.866025 0 0.5
    outer loop
      vertex 18.5297 0 5.98446
      vertex 19.4047 10 7.5
      vertex 18.5297 10 5.98446
    endloop
  endfacet
  facet normal -0.866025 0 0.5
    outer loop
      vertex 19.4047 10 7.5
      vertex 18.5297 0 5.98446
      vertex 19.4047 0 7.5
    endloop
  endfacet
  facet normal 0.866025 -0 0.5
    outer loop
      vertex 15.9047 0 7.5
      vertex 16.7797 10 5.98446
      vertex 15.9047 10 7.5
    endloop
  endfacet
  facet normal 0.866025 0 0.5
    outer loop
      vertex 16.7797 10 5.98446
      vertex 15.9047 0 7.5
      vertex 16.7797 0 5.98446
    endloop
  endfacet
  facet normal -0 0 1
    outer loop
      vertex 16.7797 10 5.98446
      vertex 18.5297 0 5.98446
      vertex 18.5297 10 5.98446
    endloop
  endfacet
  facet normal 0 0 1
    outer loop
      vertex 18.5297 0 5.98446
      vertex 16.7797 10 5.98446
      vertex 16.7797 0 5.98446
    endloop
  endfacet
  facet normal -0.866025 0 -0.5
    outer loop
      vertex 19.4047 0 7.5
      vertex 18.5297 10 9.01554
      vertex 19.4047 10 7.5
    endloop
  endfacet
  facet normal -0.866025 -0 -0.5
    outer loop
      vertex 18.5297 10 9.01554
      vertex 19.4047 0 7.5
      vertex 18.5297 0 9.01554
    endloop
  endfacet
  facet normal 0 0 -1
    outer loop
      vertex 16.7797 0 9.01554
      vertex 18.5297 10 9.01554
      vertex 18.5297 0 9.01554
    endloop
  endfacet
  facet normal -0 0 -1
    outer loop
      vertex 18.5297 10 9.01554
      vertex 16.7797 0 9.01554
      vertex 16.7797 10 9.01554
    endloop
  endfacet
  facet normal 0.866026 0 -0.5
    outer loop
      vertex 16.7797 0 9.01554
      vertex 15.9047 10 7.5
      vertex 16.7797 10 9.01554
    endloop
  endfacet
  facet normal 0.866026 0 -0.5
    outer loop
      vertex 15.9047 10 7.5
      vertex 16.7797 0 9.01554
      vertex 15.9047 0 7.5
    endloop
  endfacet
  facet normal -0.951057 0 0.309017
    outer loop
      vertex 20.0818 10 5.73664
      vertex 20.6547 25 7.5
      vertex 20.0818 25 5.73664
    endloop
  endfacet
  facet normal -0.951057 0 0.309017
    outer loop
      vertex 20.6547 25 7.5
      vertex 20.0818 10 5.73664
      vertex 20.6547 10 7.5
    endloop
  endfacet
  facet normal 0.951056 -0 0.309017
    outer loop
      vertex 14.6547 10 7.5
      vertex 15.2277 25 5.73664
      vertex 14.6547 25 7.5
    endloop
  endfacet
  facet normal 0.951056 0 0.309017
    outer loop
      vertex 15.2277 25 5.73664
      vertex 14.6547 10 7.5
      vertex 15.2277 10 5.73664
    endloop
  endfacet
  facet normal 0 0 -1
    outer loop
      vertex 16.7277 10 10.3532
      vertex 18.5818 25 10.3532
      vertex 18.5818 10 10.3532
    endloop
  endfacet
  facet normal -0 0 -1
    outer loop
      vertex 18.5818 25 10.3532
      vertex 16.7277 10 10.3532
      vertex 16.7277 25 10.3532
    endloop
  endfacet
  facet normal -0 0 1
    outer loop
      vertex 16.7277 25 4.64683
      vertex 18.5818 10 4.64683
      vertex 18.5818 25 4.64683
    endloop
  endfacet
  facet normal 0 0 1
    outer loop
      vertex 18.5818 10 4.64683
      vertex 16.7277 25 4.64683
      vertex 16.7277 10 4.64683
    endloop
  endfacet
  facet normal -0.587785 0 0.809017
    outer loop
      vertex 18.5818 25 4.64683
      vertex 20.0818 10 5.73664
      vertex 20.0818 25 5.73664
    endloop
  endfacet
  facet normal -0.587785 0 0.809017
    outer loop
      vertex 20.0818 10 5.73664
      vertex 18.5818 25 4.64683
      vertex 18.5818 10 4.64683
    endloop
  endfacet
  facet normal 0.587785 0 0.809017
    outer loop
      vertex 15.2277 25 5.73664
      vertex 16.7277 10 4.64683
      vertex 16.7277 25 4.64683
    endloop
  endfacet
  facet normal 0.587785 0 0.809017
    outer loop
      vertex 16.7277 10 4.64683
      vertex 15.2277 25 5.73664
      vertex 15.2277 10 5.73664
    endloop
  endfacet
  facet normal -0.951057 0 -0.309017
    outer loop
      vertex 20.6547 10 7.5
      vertex 20.0818 25 9.26336
      vertex 20.6547 25 7.5
    endloop
  endfacet
  facet normal -0.951057 -0 -0.309017
    outer loop
      vertex 20.0818 25 9.26336
      vertex 20.6547 10 7.5
      vertex 20.0818 10 9.26336
    endloop
  endfacet
  facet normal 0 1 0
    outer loop
      vertex 18.5297 10 9.01554
      vertex 18.5818 10 10.3532
      vertex 20.0818 10 9.26336
    endloop
  endfacet
  facet normal 0 1 0
    outer loop
      vertex 18.5818 10 10.3532
      vertex 18.5297 10 9.01554
      vertex 16.7277 10 10.3532
    endloop
  endfacet
  facet normal 0 1 -0
    outer loop
      vertex 16.7797 10 9.01554
      vertex 16.7277 10 10.3532
      vertex 18.5297 10 9.01554
    endloop
  endfacet
  facet normal 0 1 0
    outer loop
      vertex 19.4047 10 7.5
      vertex 20.0818 10 9.26336
      vertex 20.6547 10 7.5
    endloop
  endfacet
  facet normal 0 1 0
    outer loop
      vertex 20.0818 10 9.26336
      vertex 19.4047 10 7.5
      vertex 18.5297 10 9.01554
    endloop
  endfacet
  facet normal 0 1 -0
    outer loop
      vertex 20.0818 10 5.73664
      vertex 19.4047 10 7.5
      vertex 20.6547 10 7.5
    endloop
  endfacet
  facet normal 0 1 -0
    outer loop
      vertex 18.5818 10 4.64683
      vertex 18.5297 10 5.98446
      vertex 20.0818 10 5.73664
    endloop
  endfacet
  facet normal 0 1 0
    outer loop
      vertex 19.4047 10 7.5
      vertex 20.0818 10 5.73664
      vertex 18.5297 10 5.98446
    endloop
  endfacet
  facet normal 0 1 0
    outer loop
      vertex 16.7277 10 10.3532
      vertex 16.7797 10 9.01554
      vertex 15.2277 10 9.26336
    endloop
  endfacet
  facet normal 0 1 -0
    outer loop
      vertex 15.9047 10 7.5
      vertex 15.2277 10 9.26336
      vertex 16.7797 10 9.01554
    endloop
  endfacet
  facet normal 0 1 0
    outer loop
      vertex 15.9047 10 7.5
      vertex 14.6547 10 7.5
      vertex 15.2277 10 9.26336
    endloop
  endfacet
  facet normal 0 1 0
    outer loop
      vertex 15.2277 10 5.73664
      vertex 15.9047 10 7.5
      vertex 16.7797 10 5.98446
    endloop
  endfacet
  facet normal 0 1 0
    outer loop
      vertex 15.9047 10 7.5
      vertex 15.2277 10 5.73664
      vertex 14.6547 10 7.5
    endloop
  endfacet
  facet normal 0 1 0
    outer loop
      vertex 18.5297 10 5.98446
      vertex 18.5818 10 4.64683
      vertex 16.7797 10 5.98446
    endloop
  endfacet
  facet normal 0 1 0
    outer loop
      vertex 16.7277 10 4.64683
      vertex 16.7797 10 5.98446
      vertex 18.5818 10 4.64683
    endloop
  endfacet
  facet normal 0 1 0
    outer loop
      vertex 16.7797 10 5.98446
      vertex 16.7277 10 4.64683
      vertex 15.2277 10 5.73664
    endloop
  endfacet
  facet normal -0.587785 0 -0.809017
    outer loop
      vertex 18.5818 10 10.3532
      vertex 20.0818 25 9.26336
      vertex 20.0818 10 9.26336
    endloop
  endfacet
  facet normal -0.587785 0 -0.809017
    outer loop
      vertex 20.0818 25 9.26336
      vertex 18.5818 10 10.3532
      vertex 18.5818 25 10.3532
    endloop
  endfacet
  facet normal 0.587785 0 -0.809017
    outer loop
      vertex 15.2277 10 9.26336
      vertex 16.7277 25 10.3532
      vertex 16.7277 10 10.3532
    endloop
  endfacet
  facet normal 0.587785 0 -0.809017
    outer loop
      vertex 16.7277 25 10.3532
      vertex 15.2277 10 9.26336
      vertex 15.2277 25 9.26336
    endloop
  endfacet
  facet normal 0.951056 0 -0.309017
    outer loop
      vertex 15.2277 10 9.26336
      vertex 14.6547 25 7.5
      vertex 15.2277 25 9.26336
    endloop
  endfacet
  facet normal 0.951056 0 -0.309017
    outer loop
      vertex 14.6547 25 7.5
      vertex 15.2277 10 9.26336
      vertex 14.6547 10 7.5
    endloop
  endfacet
  facet normal -0.866025 0 0.5
    outer loop
      vertex 43.5297 0 5.98446
      vertex 44.4047 10 7.5
      vertex 43.5297 10 5.98446
    endloop
  endfacet
  facet normal -0.866025 0 0.5
    outer loop
      vertex 44.4047 10 7.5
      vertex 43.5297 0 5.98446
      vertex 44.4047 0 7.5
    endloop
  endfacet
  facet normal 0.866025 -0 0.5
    outer loop
      vertex 40.9047 0 7.5
      vertex 41.7797 10 5.98446
      vertex 40.9047 10 7.5
    endloop
  endfacet
  facet normal 0.866025 0 0.5
    outer loop
      vertex 41.7797 10 5.98446
      vertex 40.9047 0 7.5
      vertex 41.7797 0 5.98446
    endloop
  endfacet
  facet normal -0 0 1
    outer loop
      vertex 41.7797 10 5.98446
      vertex 43.5297 0 5.98446
      vertex 43.5297 10 5.98446
    endloop
  endfacet
  facet normal 0 0 1
    outer loop
      vertex 43.5297 0 5.98446
      vertex 41.7797 10 5.98446
      vertex 41.7797 0 5.98446
    endloop
  endfacet
  facet normal -0.866025 0 -0.5
    outer loop
      vertex 44.4047 0 7.5
      vertex 43.5297 10 9.01554
      vertex 44.4047 10 7.5
    endloop
  endfacet
  facet normal -0.866025 -0 -0.5
    outer loop
      vertex 43.5297 10 9.01554
      vertex 44.4047 0 7.5
      vertex 43.5297 0 9.01554
    endloop
  endfacet
  facet normal 0 0 -1
    outer loop
      vertex 41.7797 0 9.01554
      vertex 43.5297 10 9.01554
      vertex 43.5297 0 9.01554
    endloop
  endfacet
  facet normal -0 0 -1
    outer loop
      vertex 43.5297 10 9.01554
      vertex 41.7797 0 9.01554
      vertex 41.7797 10 9.01554
    endloop
  endfacet
  facet normal 0.866025 0 -0.5
    outer loop
      vertex 41.7797 0 9.01554
      vertex 40.9047 10 7.5
      vertex 41.7797 10 9.01554
    endloop
  endfacet
  facet normal 0.866025 0 -0.5
    outer loop
      vertex 40.9047 10 7.5
      vertex 41.7797 0 9.01554
      vertex 40.9047 0 7.5
    endloop
  endfacet
  facet normal -0.951056 0 0.309019
    outer loop
      vertex 45.0818 10 5.73664
      vertex 45.6547 25 7.5
      vertex 45.0818 25 5.73664
    endloop
  endfacet
  facet normal -0.951056 0 0.309019
    outer loop
      vertex 45.6547 25 7.5
      vertex 45.0818 10 5.73664
      vertex 45.6547 10 7.5
    endloop
  endfacet
  facet normal 0.951057 -0 0.309017
    outer loop
      vertex 39.6547 10 7.5
      vertex 40.2277 25 5.73664
      vertex 39.6547 25 7.5
    endloop
  endfacet
  facet normal 0.951057 0 0.309017
    outer loop
      vertex 40.2277 25 5.73664
      vertex 39.6547 10 7.5
      vertex 40.2277 10 5.73664
    endloop
  endfacet
  facet normal 0 0 -1
    outer loop
      vertex 41.7277 10 10.3532
      vertex 43.5818 25 10.3532
      vertex 43.5818 10 10.3532
    endloop
  endfacet
  facet normal -0 0 -1
    outer loop
      vertex 43.5818 25 10.3532
      vertex 41.7277 10 10.3532
      vertex 41.7277 25 10.3532
    endloop
  endfacet
  facet normal -0 0 1
    outer loop
      vertex 41.7277 25 4.64683
      vertex 43.5818 10 4.64683
      vertex 43.5818 25 4.64683
    endloop
  endfacet
  facet normal 0 0 1
    outer loop
      vertex 43.5818 10 4.64683
      vertex 41.7277 25 4.64683
      vertex 41.7277 10 4.64683
    endloop
  endfacet
  facet normal -0.587785 0 0.809017
    outer loop
      vertex 43.5818 25 4.64683
      vertex 45.0818 10 5.73664
      vertex 45.0818 25 5.73664
    endloop
  endfacet
  facet normal -0.587785 0 0.809017
    outer loop
      vertex 45.0818 10 5.73664
      vertex 43.5818 25 4.64683
      vertex 43.5818 10 4.64683
    endloop
  endfacet
  facet normal 0.587785 0 0.809017
    outer loop
      vertex 40.2277 25 5.73664
      vertex 41.7277 10 4.64683
      vertex 41.7277 25 4.64683
    endloop
  endfacet
  facet normal 0.587785 0 0.809017
    outer loop
      vertex 41.7277 10 4.64683
      vertex 40.2277 25 5.73664
      vertex 40.2277 10 5.73664
    endloop
  endfacet
  facet normal -0.951056 0 -0.309019
    outer loop
      vertex 45.6547 10 7.5
      vertex 45.0818 25 9.26336
      vertex 45.6547 25 7.5
    endloop
  endfacet
  facet normal -0.951056 -0 -0.309019
    outer loop
      vertex 45.0818 25 9.26336
      vertex 45.6547 10 7.5
      vertex 45.0818 10 9.26336
    endloop
  endfacet
  facet normal 0 1 0
    outer loop
      vertex 43.5297 10 9.01554
      vertex 43.5818 10 10.3532
      vertex 45.0818 10 9.26336
    endloop
  endfacet
  facet normal 0 1 0
    outer loop
      vertex 43.5818 10 10.3532
      vertex 43.5297 10 9.01554
      vertex 41.7277 10 10.3532
    endloop
  endfacet
  facet normal 0 1 -0
    outer loop
      vertex 41.7797 10 9.01554
      vertex 41.7277 10 10.3532
      vertex 43.5297 10 9.01554
    endloop
  endfacet
  facet normal 0 1 0
    outer loop
      vertex 44.4047 10 7.5
      vertex 45.0818 10 9.26336
      vertex 45.6547 10 7.5
    endloop
  endfacet
  facet normal 0 1 0
    outer loop
      vertex 45.0818 10 9.26336
      vertex 44.4047 10 7.5
      vertex 43.5297 10 9.01554
    endloop
  endfacet
  facet normal 0 1 -0
    outer loop
      vertex 45.0818 10 5.73664
      vertex 44.4047 10 7.5
      vertex 45.6547 10 7.5
    endloop
  endfacet
  facet normal 0 1 -0
    outer loop
      vertex 43.5818 10 4.64683
      vertex 43.5297 10 5.98446
      vertex 45.0818 10 5.73664
    endloop
  endfacet
  facet normal 0 1 0
    outer loop
      vertex 44.4047 10 7.5
      vertex 45.0818 10 5.73664
      vertex 43.5297 10 5.98446
    endloop
  endfacet
  facet normal 0 1 0
    outer loop
      vertex 41.7277 10 10.3532
      vertex 41.7797 10 9.01554
      vertex 40.2277 10 9.26336
    endloop
  endfacet
  facet normal 0 1 -0
    outer loop
      vertex 40.9047 10 7.5
      vertex 40.2277 10 9.26336
      vertex 41.7797 10 9.01554
    endloop
  endfacet
  facet normal 0 1 0
    outer loop
      vertex 40.9047 10 7.5
      vertex 39.6547 10 7.5
      vertex 40.2277 10 9.26336
    endloop
  endfacet
  facet normal 0 1 0
    outer loop
      vertex 40.2277 10 5.73664
      vertex 40.9047 10 7.5
      vertex 41.7797 10 5.98446
    endloop
  endfacet
  facet normal 0 1 0
    outer loop
      vertex 40.9047 10 7.5
      vertex 40.2277 10 5.73664
      vertex 39.6547 10 7.5
    endloop
  endfacet
  facet normal 0 1 0
    outer loop
      vertex 43.5297 10 5.98446
      vertex 43.5818 10 4.64683
      vertex 41.7797 10 5.98446
    endloop
  endfacet
  facet normal 0 1 0
    outer loop
      vertex 41.7277 10 4.64683
      vertex 41.7797 10 5.98446
      vertex 43.5818 10 4.64683
    endloop
  endfacet
  facet normal 0 1 0
    outer loop
      vertex 41.7797 10 5.98446
      vertex 41.7277 10 4.64683
      vertex 40.2277 10 5.73664
    endloop
  endfacet
  facet normal -0.587785 0 -0.809017
    outer loop
      vertex 43.5818 10 10.3532
      vertex 45.0818 25 9.26336
      vertex 45.0818 10 9.26336
    endloop
  endfacet
  facet normal -0.587785 0 -0.809017
    outer loop
      vertex 45.0818 25 9.26336
      vertex 43.5818 10 10.3532
      vertex 43.5818 25 10.3532
    endloop
  endfacet
  facet normal 0.587785 0 -0.809017
    outer loop
      vertex 40.2277 10 9.26336
      vertex 41.7277 25 10.3532
      vertex 41.7277 10 10.3532
    endloop
  endfacet
  facet normal 0.587785 0 -0.809017
    outer loop
      vertex 41.7277 25 10.3532
      vertex 40.2277 10 9.26336
      vertex 40.2277 25 9.26336
    endloop
  endfacet
  facet normal 0.951057 0 -0.309017
    outer loop
      vertex 40.2277 10 9.26336
      vertex 39.6547 25 7.5
      vertex 40.2277 25 9.26336
    endloop
  endfacet
  facet normal 0.951057 0 -0.309017
    outer loop
      vertex 39.6547 25 7.5
      vertex 40.2277 10 9.26336
      vertex 39.6547 10 7.5
    endloop
  endfacet
  facet normal -0.866025 0 0.5
    outer loop
      vertex 68.5297 0 5.98446
      vertex 69.4047 10 7.5
      vertex 68.5297 10 5.98446
    endloop
  endfacet
  facet normal -0.866025 0 0.5
    outer loop
      vertex 69.4047 10 7.5
      vertex 68.5297 0 5.98446
      vertex 69.4047 0 7.5
    endloop
  endfacet
  facet normal 0.866025 -0 0.5
    outer loop
      vertex 65.9047 0 7.5
      vertex 66.7797 10 5.98446
      vertex 65.9047 10 7.5
    endloop
  endfacet
  facet normal 0.866025 0 0.5
    outer loop
      vertex 66.7797 10 5.98446
      vertex 65.9047 0 7.5
      vertex 66.7797 0 5.98446
    endloop
  endfacet
  facet normal -0 0 1
    outer loop
      vertex 66.7797 10 5.98446
      vertex 68.5297 0 5.98446
      vertex 68.5297 10 5.98446
    endloop
  endfacet
  facet normal 0 0 1
    outer loop
      vertex 68.5297 0 5.98446
      vertex 66.7797 10 5.98446
      vertex 66.7797 0 5.98446
    endloop
  endfacet
  facet normal -0.866025 0 -0.5
    outer loop
      vertex 69.4047 0 7.5
      vertex 68.5297 10 9.01554
      vertex 69.4047 10 7.5
    endloop
  endfacet
  facet normal -0.866025 -0 -0.5
    outer loop
      vertex 68.5297 10 9.01554
      vertex 69.4047 0 7.5
      vertex 68.5297 0 9.01554
    endloop
  endfacet
  facet normal 0 0 -1
    outer loop
      vertex 66.7797 0 9.01554
      vertex 68.5297 10 9.01554
      vertex 68.5297 0 9.01554
    endloop
  endfacet
  facet normal -0 0 -1
    outer loop
      vertex 68.5297 10 9.01554
      vertex 66.7797 0 9.01554
      vertex 66.7797 10 9.01554
    endloop
  endfacet
  facet normal 0.866025 0 -0.5
    outer loop
      vertex 66.7797 0 9.01554
      vertex 65.9047 10 7.5
      vertex 66.7797 10 9.01554
    endloop
  endfacet
  facet normal 0.866025 0 -0.5
    outer loop
      vertex 65.9047 10 7.5
      vertex 66.7797 0 9.01554
      vertex 65.9047 0 7.5
    endloop
  endfacet
  facet normal -0.951057 0 0.309015
    outer loop
      vertex 70.0818 10 5.73664
      vertex 70.6547 25 7.5
      vertex 70.0818 25 5.73664
    endloop
  endfacet
  facet normal -0.951057 0 0.309015
    outer loop
      vertex 70.6547 25 7.5
      vertex 70.0818 10 5.73664
      vertex 70.6547 10 7.5
    endloop
  endfacet
  facet normal 0.951056 -0 0.309019
    outer loop
      vertex 64.6547 10 7.5
      vertex 65.2277 25 5.73664
      vertex 64.6547 25 7.5
    endloop
  endfacet
  facet normal 0.951056 0 0.309019
    outer loop
      vertex 65.2277 25 5.73664
      vertex 64.6547 10 7.5
      vertex 65.2277 10 5.73664
    endloop
  endfacet
  facet normal 0 0 -1
    outer loop
      vertex 66.7277 10 10.3532
      vertex 68.5818 25 10.3532
      vertex 68.5818 10 10.3532
    endloop
  endfacet
  facet normal -0 0 -1
    outer loop
      vertex 68.5818 25 10.3532
      vertex 66.7277 10 10.3532
      vertex 66.7277 25 10.3532
    endloop
  endfacet
  facet normal -0 0 1
    outer loop
      vertex 66.7277 25 4.64683
      vertex 68.5818 10 4.64683
      vertex 68.5818 25 4.64683
    endloop
  endfacet
  facet normal 0 0 1
    outer loop
      vertex 68.5818 10 4.64683
      vertex 66.7277 25 4.64683
      vertex 66.7277 10 4.64683
    endloop
  endfacet
  facet normal -0.587785 0 0.809017
    outer loop
      vertex 68.5818 25 4.64683
      vertex 70.0818 10 5.73664
      vertex 70.0818 25 5.73664
    endloop
  endfacet
  facet normal -0.587785 0 0.809017
    outer loop
      vertex 70.0818 10 5.73664
      vertex 68.5818 25 4.64683
      vertex 68.5818 10 4.64683
    endloop
  endfacet
  facet normal 0.587785 0 0.809017
    outer loop
      vertex 65.2277 25 5.73664
      vertex 66.7277 10 4.64683
      vertex 66.7277 25 4.64683
    endloop
  endfacet
  facet normal 0.587785 0 0.809017
    outer loop
      vertex 66.7277 10 4.64683
      vertex 65.2277 25 5.73664
      vertex 65.2277 10 5.73664
    endloop
  endfacet
  facet normal -0.951057 0 -0.309015
    outer loop
      vertex 70.6547 10 7.5
      vertex 70.0818 25 9.26336
      vertex 70.6547 25 7.5
    endloop
  endfacet
  facet normal -0.951057 -0 -0.309015
    outer loop
      vertex 70.0818 25 9.26336
      vertex 70.6547 10 7.5
      vertex 70.0818 10 9.26336
    endloop
  endfacet
  facet normal 0 1 0
    outer loop
      vertex 68.5297 10 9.01554
      vertex 68.5818 10 10.3532
      vertex 70.0818 10 9.26336
    endloop
  endfacet
  facet normal 0 1 0
    outer loop
      vertex 68.5818 10 10.3532
      vertex 68.5297 10 9.01554
      vertex 66.7277 10 10.3532
    endloop
  endfacet
  facet normal 0 1 -0
    outer loop
      vertex 66.7797 10 9.01554
      vertex 66.7277 10 10.3532
      vertex 68.5297 10 9.01554
    endloop
  endfacet
  facet normal 0 1 0
    outer loop
      vertex 69.4047 10 7.5
      vertex 70.0818 10 9.26336
      vertex 70.6547 10 7.5
    endloop
  endfacet
  facet normal 0 1 0
    outer loop
      vertex 70.0818 10 9.26336
      vertex 69.4047 10 7.5
      vertex 68.5297 10 9.01554
    endloop
  endfacet
  facet normal 0 1 -0
    outer loop
      vertex 70.0818 10 5.73664
      vertex 69.4047 10 7.5
      vertex 70.6547 10 7.5
    endloop
  endfacet
  facet normal 0 1 -0
    outer loop
      vertex 68.5818 10 4.64683
      vertex 68.5297 10 5.98446
      vertex 70.0818 10 5.73664
    endloop
  endfacet
  facet normal 0 1 0
    outer loop
      vertex 69.4047 10 7.5
      vertex 70.0818 10 5.73664
      vertex 68.5297 10 5.98446
    endloop
  endfacet
  facet normal 0 1 0
    outer loop
      vertex 66.7277 10 10.3532
      vertex 66.7797 10 9.01554
      vertex 65.2277 10 9.26336
    endloop
  endfacet
  facet normal 0 1 -0
    outer loop
      vertex 65.9047 10 7.5
      vertex 65.2277 10 9.26336
      vertex 66.7797 10 9.01554
    endloop
  endfacet
  facet normal 0 1 0
    outer loop
      vertex 65.9047 10 7.5
      vertex 64.6547 10 7.5
      vertex 65.2277 10 9.26336
    endloop
  endfacet
  facet normal 0 1 0
    outer loop
      vertex 65.2277 10 5.73664
      vertex 65.9047 10 7.5
      vertex 66.7797 10 5.98446
    endloop
  endfacet
  facet normal 0 1 0
    outer loop
      vertex 65.9047 10 7.5
      vertex 65.2277 10 5.73664
      vertex 64.6547 10 7.5
    endloop
  endfacet
  facet normal 0 1 0
    outer loop
      vertex 68.5297 10 5.98446
      vertex 68.5818 10 4.64683
      vertex 66.7797 10 5.98446
    endloop
  endfacet
  facet normal 0 1 0
    outer loop
      vertex 66.7277 10 4.64683
      vertex 66.7797 10 5.98446
      vertex 68.5818 10 4.64683
    endloop
  endfacet
  facet normal 0 1 0
    outer loop
      vertex 66.7797 10 5.98446
      vertex 66.7277 10 4.64683
      vertex 65.2277 10 5.73664
    endloop
  endfacet
  facet normal -0.587785 0 -0.809017
    outer loop
      vertex 68.5818 10 10.3532
      vertex 70.0818 25 9.26336
      vertex 70.0818 10 9.26336
    endloop
  endfacet
  facet normal -0.587785 0 -0.809017
    outer loop
      vertex 70.0818 25 9.26336
      vertex 68.5818 10 10.3532
      vertex 68.5818 25 10.3532
    endloop
  endfacet
  facet normal 0.587785 0 -0.809017
    outer loop
      vertex 65.2277 10 9.26336
      vertex 66.7277 25 10.3532
      vertex 66.7277 10 10.3532
    endloop
  endfacet
  facet normal 0.587785 0 -0.809017
    outer loop
      vertex 66.7277 25 10.3532
      vertex 65.2277 10 9.26336
      vertex 65.2277 25 9.26336
    endloop
  endfacet
  facet normal 0.951056 0 -0.309019
    outer loop
      vertex 65.2277 10 9.26336
      vertex 64.6547 25 7.5
      vertex 65.2277 25 9.26336
    endloop
  endfacet
  facet normal 0.951056 0 -0.309019
    outer loop
      vertex 64.6547 25 7.5
      vertex 65.2277 10 9.26336
      vertex 64.6547 10 7.5
    endloop
  endfacet
  facet normal 0 1 -0
    outer loop
      vertex 39.6547 25 7.5
      vertex 22.8218 25 14.85
      vertex 40.2277 25 9.26336
    endloop
  endfacet
  facet normal 0 1 0
    outer loop
      vertex 22.8218 25 14.85
      vertex 20.0818 25 9.26336
      vertex 18.5818 25 10.3532
    endloop
  endfacet
  facet normal 0 1 0
    outer loop
      vertex 20.6547 25 7.5
      vertex 22.8218 25 14.85
      vertex 39.6547 25 7.5
    endloop
  endfacet
  facet normal 0 1 0
    outer loop
      vertex 22.8218 25 14.85
      vertex 20.6547 25 7.5
      vertex 20.0818 25 9.26336
    endloop
  endfacet
  facet normal 0 1 0
    outer loop
      vertex 40.2277 25 5.73664
      vertex 20.6547 25 7.5
      vertex 39.6547 25 7.5
    endloop
  endfacet
  facet normal 0 1 0
    outer loop
      vertex 40.2277 25 5.73664
      vertex 20.0818 25 5.73664
      vertex 20.6547 25 7.5
    endloop
  endfacet
  facet normal 0 1 0
    outer loop
      vertex 41.7277 25 4.64683
      vertex 20.0818 25 5.73664
      vertex 40.2277 25 5.73664
    endloop
  endfacet
  facet normal 0 1 0
    outer loop
      vertex 20.0818 25 5.73664
      vertex 41.7277 25 4.64683
      vertex 18.5818 25 4.64683
    endloop
  endfacet
  facet normal 0 1 -0
    outer loop
      vertex 64.6547 25 7.5
      vertex 50.6715 25 14.85
      vertex 65.2277 25 9.26336
    endloop
  endfacet
  facet normal 0 1 0
    outer loop
      vertex 50.6715 25 14.85
      vertex 45.0818 25 9.26336
      vertex 43.5818 25 10.3532
    endloop
  endfacet
  facet normal 0 1 0
    outer loop
      vertex 45.6547 25 7.5
      vertex 50.6715 25 14.85
      vertex 64.6547 25 7.5
    endloop
  endfacet
  facet normal 0 1 0
    outer loop
      vertex 50.6715 25 14.85
      vertex 45.6547 25 7.5
      vertex 45.0818 25 9.26336
    endloop
  endfacet
  facet normal 0 1 0
    outer loop
      vertex 65.2277 25 5.73664
      vertex 45.6547 25 7.5
      vertex 64.6547 25 7.5
    endloop
  endfacet
  facet normal 0 1 0
    outer loop
      vertex 65.2277 25 5.73664
      vertex 45.0818 25 5.73664
      vertex 45.6547 25 7.5
    endloop
  endfacet
  facet normal 0 1 0
    outer loop
      vertex 66.7277 25 4.64683
      vertex 45.0818 25 5.73664
      vertex 65.2277 25 5.73664
    endloop
  endfacet
  facet normal 0 1 0
    outer loop
      vertex 45.0818 25 5.73664
      vertex 66.7277 25 4.64683
      vertex 43.5818 25 4.64683
    endloop
  endfacet
  facet normal 0 1 -0
    outer loop
      vertex 66.7277 25 10.3532
      vertex 50.6715 25 14.85
      vertex 73.2538 25 14.85
    endloop
  endfacet
  facet normal 0 1 0
    outer loop
      vertex 41.7277 25 10.3532
      vertex 50.6715 25 14.85
      vertex 43.5818 25 10.3532
    endloop
  endfacet
  facet normal 0 1 0
    outer loop
      vertex 66.7277 25 10.3532
      vertex 73.2538 25 14.85
      vertex 68.5818 25 10.3532
    endloop
  endfacet
  facet normal 0 1 0
    outer loop
      vertex 73.2538 25 14.85
      vertex 70.0818 25 9.26336
      vertex 68.5818 25 10.3532
    endloop
  endfacet
  facet normal 0 1 0
    outer loop
      vertex 73.2538 25 14.85
      vertex 70.6547 25 7.5
      vertex 70.0818 25 9.26336
    endloop
  endfacet
  facet normal 0 1 -0
    outer loop
      vertex 73.2538 25 0
      vertex 70.6547 25 7.5
      vertex 73.2538 25 14.85
    endloop
  endfacet
  facet normal 0 1 0
    outer loop
      vertex 73.2538 25 0
      vertex 66.7277 25 4.64683
      vertex 68.5818 25 4.64683
    endloop
  endfacet
  facet normal 0 1 0
    outer loop
      vertex 66.7277 25 4.64683
      vertex 73.2538 25 0
      vertex 43.5818 25 4.64683
    endloop
  endfacet
  facet normal 0 1 0
    outer loop
      vertex 43.5818 25 4.64683
      vertex 73.2538 25 0
      vertex 41.7277 25 4.64683
    endloop
  endfacet
  facet normal 0 1 0
    outer loop
      vertex 0.239488 25 0
      vertex 41.7277 25 4.64683
      vertex 73.2538 25 0
    endloop
  endfacet
  facet normal 0 1 0
    outer loop
      vertex 41.7277 25 4.64683
      vertex 0.239488 25 0
      vertex 18.5818 25 4.64683
    endloop
  endfacet
  facet normal 0 1 0
    outer loop
      vertex 70.0818 25 5.73664
      vertex 73.2538 25 0
      vertex 68.5818 25 4.64683
    endloop
  endfacet
  facet normal 0 1 0
    outer loop
      vertex 70.6547 25 7.5
      vertex 73.2538 25 0
      vertex 70.0818 25 5.73664
    endloop
  endfacet
  facet normal 0 1 -0
    outer loop
      vertex 50.6715 25 14.85
      vertex 22.8218 25 18
      vertex 50.6715 25 18
    endloop
  endfacet
  facet normal 0 1 0
    outer loop
      vertex 22.8218 25 18
      vertex 50.6715 25 14.85
      vertex 22.8218 25 14.85
    endloop
  endfacet
  facet normal 0 1 -0
    outer loop
      vertex 65.2277 25 9.26336
      vertex 50.6715 25 14.85
      vertex 66.7277 25 10.3532
    endloop
  endfacet
  facet normal 0 1 0
    outer loop
      vertex 50.6715 25 14.85
      vertex 41.7277 25 10.3532
      vertex 22.8218 25 14.85
    endloop
  endfacet
  facet normal 0 1 -0
    outer loop
      vertex 40.2277 25 9.26336
      vertex 22.8218 25 14.85
      vertex 41.7277 25 10.3532
    endloop
  endfacet
  facet normal 0 1 0
    outer loop
      vertex 16.7277 25 10.3532
      vertex 22.8218 25 14.85
      vertex 18.5818 25 10.3532
    endloop
  endfacet
  facet normal 0 1 0
    outer loop
      vertex 22.8218 25 14.85
      vertex 16.7277 25 10.3532
      vertex 0.239488 25 14.85
    endloop
  endfacet
  facet normal 0 1 -0
    outer loop
      vertex 15.2277 25 9.26336
      vertex 0.239488 25 14.85
      vertex 16.7277 25 10.3532
    endloop
  endfacet
  facet normal 0 1 -0
    outer loop
      vertex 14.6547 25 7.5
      vertex 0.239488 25 14.85
      vertex 15.2277 25 9.26336
    endloop
  endfacet
  facet normal 0 1 0
    outer loop
      vertex 0.239488 25 0
      vertex 14.6547 25 7.5
      vertex 15.2277 25 5.73664
    endloop
  endfacet
  facet normal 0 1 0
    outer loop
      vertex 0.239488 25 0
      vertex 15.2277 25 5.73664
      vertex 16.7277 25 4.64683
    endloop
  endfacet
  facet normal 0 1 0
    outer loop
      vertex 14.6547 25 7.5
      vertex 0.239488 25 0
      vertex 0.239488 25 14.85
    endloop
  endfacet
  facet normal 0 1 0
    outer loop
      vertex 18.5818 25 4.64683
      vertex 0.239488 25 0
      vertex 16.7277 25 4.64683
    endloop
  endfacet
  facet normal 0 -1 0
    outer loop
      vertex 65.9047 0 7.5
      vertex 58.0868 0 14.85
      vertex 44.4047 0 7.5
    endloop
  endfacet
  facet normal 0 -1 0
    outer loop
      vertex 58.0868 0 14.85
      vertex 65.9047 0 7.5
      vertex 66.7797 0 9.01554
    endloop
  endfacet
  facet normal 0 -1 0
    outer loop
      vertex 43.5297 0 5.98446
      vertex 65.9047 0 7.5
      vertex 44.4047 0 7.5
    endloop
  endfacet
  facet normal 0 -1 -0
    outer loop
      vertex 65.9047 0 7.5
      vertex 43.5297 0 5.98446
      vertex 66.7797 0 5.98446
    endloop
  endfacet
  facet normal 0 -1 0
    outer loop
      vertex 40.9047 0 7.5
      vertex 30.237 0 14.85
      vertex 19.4047 0 7.5
    endloop
  endfacet
  facet normal 0 -1 0
    outer loop
      vertex 30.237 0 14.85
      vertex 40.9047 0 7.5
      vertex 41.7797 0 9.01554
    endloop
  endfacet
  facet normal 0 -1 0
    outer loop
      vertex 18.5297 0 5.98446
      vertex 40.9047 0 7.5
      vertex 19.4047 0 7.5
    endloop
  endfacet
  facet normal 0 -1 -0
    outer loop
      vertex 40.9047 0 7.5
      vertex 18.5297 0 5.98446
      vertex 41.7797 0 5.98446
    endloop
  endfacet
  facet normal 0 -1 0
    outer loop
      vertex 18.5297 0 9.01554
      vertex 30.237 0 14.85
      vertex 7.65474 0 14.85
    endloop
  endfacet
  facet normal 0 -1 0
    outer loop
      vertex 43.5297 0 9.01554
      vertex 30.237 0 14.85
      vertex 41.7797 0 9.01554
    endloop
  endfacet
  facet normal 0 -1 0
    outer loop
      vertex 18.5297 0 9.01554
      vertex 7.65474 0 14.85
      vertex 16.7797 0 9.01554
    endloop
  endfacet
  facet normal 0 -1 0
    outer loop
      vertex 7.65474 0 14.85
      vertex 15.9047 0 7.5
      vertex 16.7797 0 9.01554
    endloop
  endfacet
  facet normal 0 -1 0
    outer loop
      vertex 7.65474 0 0
      vertex 15.9047 0 7.5
      vertex 7.65474 0 14.85
    endloop
  endfacet
  facet normal 0 -1 0
    outer loop
      vertex 7.65474 0 0
      vertex 18.5297 0 5.98446
      vertex 16.7797 0 5.98446
    endloop
  endfacet
  facet normal 0 -1 -0
    outer loop
      vertex 18.5297 0 5.98446
      vertex 7.65474 0 0
      vertex 41.7797 0 5.98446
    endloop
  endfacet
  facet normal 0 -1 -0
    outer loop
      vertex 41.7797 0 5.98446
      vertex 7.65474 0 0
      vertex 43.5297 0 5.98446
    endloop
  endfacet
  facet normal 0 -1 0
    outer loop
      vertex 80.6691 0 0
      vertex 43.5297 0 5.98446
      vertex 7.65474 0 0
    endloop
  endfacet
  facet normal 0 -1 0
    outer loop
      vertex 43.5297 0 5.98446
      vertex 80.6691 0 0
      vertex 66.7797 0 5.98446
    endloop
  endfacet
  facet normal 0 -1 -0
    outer loop
      vertex 15.9047 0 7.5
      vertex 7.65474 0 0
      vertex 16.7797 0 5.98446
    endloop
  endfacet
  facet normal 0 -1 0
    outer loop
      vertex 30.237 0 14.85
      vertex 58.0868 0 18
      vertex 30.237 0 18
    endloop
  endfacet
  facet normal 0 -1 -0
    outer loop
      vertex 58.0868 0 18
      vertex 30.237 0 14.85
      vertex 58.0868 0 14.85
    endloop
  endfacet
  facet normal 0 -1 0
    outer loop
      vertex 19.4047 0 7.5
      vertex 30.237 0 14.85
      vertex 18.5297 0 9.01554
    endloop
  endfacet
  facet normal 0 -1 0
    outer loop
      vertex 30.237 0 14.85
      vertex 43.5297 0 9.01554
      vertex 58.0868 0 14.85
    endloop
  endfacet
  facet normal 0 -1 0
    outer loop
      vertex 44.4047 0 7.5
      vertex 58.0868 0 14.85
      vertex 43.5297 0 9.01554
    endloop
  endfacet
  facet normal 0 -1 0
    outer loop
      vertex 68.5297 0 9.01554
      vertex 58.0868 0 14.85
      vertex 66.7797 0 9.01554
    endloop
  endfacet
  facet normal 0 -1 0
    outer loop
      vertex 58.0868 0 14.85
      vertex 68.5297 0 9.01554
      vertex 80.6691 0 14.85
    endloop
  endfacet
  facet normal 0 -1 0
    outer loop
      vertex 69.4047 0 7.5
      vertex 80.6691 0 14.85
      vertex 68.5297 0 9.01554
    endloop
  endfacet
  facet normal 0 -1 0
    outer loop
      vertex 80.6691 0 0
      vertex 69.4047 0 7.5
      vertex 68.5297 0 5.98446
    endloop
  endfacet
  facet normal 0 -1 0
    outer loop
      vertex 69.4047 0 7.5
      vertex 80.6691 0 0
      vertex 80.6691 0 14.85
    endloop
  endfacet
  facet normal 0 -1 0
    outer loop
      vertex 66.7797 0 5.98446
      vertex 80.6691 0 0
      vertex 68.5297 0 5.98446
    endloop
  endfacet
endsolid OpenSCAD_Model
