solid OpenSCAD_Model
  facet normal -1 0 0
    outer loop
      vertex 0 0 0
      vertex 0 121.4 15
      vertex 0 121.4 0
    endloop
  endfacet
  facet normal -1 -0 0
    outer loop
      vertex 0 121.4 15
      vertex 0 0 0
      vertex 0 0 15
    endloop
  endfacet
  facet normal 0 0 1
    outer loop
      vertex 121.4 121.4 15
      vertex 1.4 120 15
      vertex 121.4 120 15
    endloop
  endfacet
  facet normal -0 0 1
    outer loop
      vertex 0 121.4 15
      vertex 1.4 120 15
      vertex 121.4 121.4 15
    endloop
  endfacet
  facet normal 0 0 1
    outer loop
      vertex 0 0 15
      vertex 1.4 120 15
      vertex 0 121.4 15
    endloop
  endfacet
  facet normal 0 0 1
    outer loop
      vertex 1.4 120 15
      vertex 0 0 15
      vertex 1.4 0 15
    endloop
  endfacet
  facet normal 0 0 1
    outer loop
      vertex 121.4 116.8 15
      vertex 6 115.4 15
      vertex 121.4 115.4 15
    endloop
  endfacet
  facet normal -0 0 1
    outer loop
      vertex 4.6 116.8 15
      vertex 6 115.4 15
      vertex 121.4 116.8 15
    endloop
  endfacet
  facet normal 0 0 1
    outer loop
      vertex 4.6 0 15
      vertex 6 115.4 15
      vertex 4.6 116.8 15
    endloop
  endfacet
  facet normal 0 0 1
    outer loop
      vertex 6 115.4 15
      vertex 4.6 0 15
      vertex 6 0 15
    endloop
  endfacet
  facet normal 1 0 0
    outer loop
      vertex 121.4 116.8 15
      vertex 121.4 115.4 15
      vertex 121.4 116.8 6
    endloop
  endfacet
  facet normal 1 0 0
    outer loop
      vertex 121.4 120 6
      vertex 121.4 121.4 15
      vertex 121.4 120 15
    endloop
  endfacet
  facet normal 1 0 0
    outer loop
      vertex 121.4 121.4 15
      vertex 121.4 120 6
      vertex 121.4 121.4 0
    endloop
  endfacet
  facet normal 1 -0 0
    outer loop
      vertex 121.4 116.8 6
      vertex 121.4 121.4 0
      vertex 121.4 120 6
    endloop
  endfacet
  facet normal 1 0 0
    outer loop
      vertex 121.4 116.8 6
      vertex 121.4 115.4 0
      vertex 121.4 121.4 0
    endloop
  endfacet
  facet normal 1 0 0
    outer loop
      vertex 121.4 115.4 0
      vertex 121.4 116.8 6
      vertex 121.4 115.4 15
    endloop
  endfacet
  facet normal 0 0 -1
    outer loop
      vertex 6 0 0
      vertex 0 0 0
      vertex 6 115.4 0
    endloop
  endfacet
  facet normal 0 0 -1
    outer loop
      vertex 6 115.4 0
      vertex 121.4 121.4 0
      vertex 121.4 115.4 0
    endloop
  endfacet
  facet normal 0 0 -1
    outer loop
      vertex 6 115.4 0
      vertex 0 121.4 0
      vertex 121.4 121.4 0
    endloop
  endfacet
  facet normal 0 0 -1
    outer loop
      vertex 0 121.4 0
      vertex 6 115.4 0
      vertex 0 0 0
    endloop
  endfacet
  facet normal 0 -1 0
    outer loop
      vertex 0 0 15
      vertex 1.4 0 6
      vertex 1.4 0 15
    endloop
  endfacet
  facet normal 0 -1 -0
    outer loop
      vertex 1.4 0 6
      vertex 0 0 0
      vertex 4.6 0 6
    endloop
  endfacet
  facet normal 0 -1 0
    outer loop
      vertex 0 0 0
      vertex 1.4 0 6
      vertex 0 0 15
    endloop
  endfacet
  facet normal 0 -1 0
    outer loop
      vertex 4.6 0 6
      vertex 6 0 15
      vertex 4.6 0 15
    endloop
  endfacet
  facet normal 0 -1 0
    outer loop
      vertex 4.6 0 6
      vertex 6 0 0
      vertex 6 0 15
    endloop
  endfacet
  facet normal 0 -1 0
    outer loop
      vertex 6 0 0
      vertex 4.6 0 6
      vertex 0 0 0
    endloop
  endfacet
  facet normal 0 1 -0
    outer loop
      vertex 121.4 121.4 0
      vertex 0 121.4 15
      vertex 121.4 121.4 15
    endloop
  endfacet
  facet normal 0 1 0
    outer loop
      vertex 0 121.4 15
      vertex 121.4 121.4 0
      vertex 0 121.4 0
    endloop
  endfacet
  facet normal 1 -0 0
    outer loop
      vertex 6 0 15
      vertex 6 115.4 0
      vertex 6 115.4 15
    endloop
  endfacet
  facet normal 1 0 0
    outer loop
      vertex 6 115.4 0
      vertex 6 0 15
      vertex 6 0 0
    endloop
  endfacet
  facet normal 0 -1 0
    outer loop
      vertex 6 115.4 0
      vertex 121.4 115.4 15
      vertex 6 115.4 15
    endloop
  endfacet
  facet normal 0 -1 -0
    outer loop
      vertex 121.4 115.4 15
      vertex 6 115.4 0
      vertex 121.4 115.4 0
    endloop
  endfacet
  facet normal 1 -0 0
    outer loop
      vertex 1.4 0 15
      vertex 1.4 120 6
      vertex 1.4 120 15
    endloop
  endfacet
  facet normal 1 0 0
    outer loop
      vertex 1.4 120 6
      vertex 1.4 0 15
      vertex 1.4 0 6
    endloop
  endfacet
  facet normal -1 0 0
    outer loop
      vertex 4.6 0 6
      vertex 4.6 116.8 15
      vertex 4.6 116.8 6
    endloop
  endfacet
  facet normal -1 -0 0
    outer loop
      vertex 4.6 116.8 15
      vertex 4.6 0 6
      vertex 4.6 0 15
    endloop
  endfacet
  facet normal 0 -1 0
    outer loop
      vertex 1.4 120 6
      vertex 121.4 120 15
      vertex 1.4 120 15
    endloop
  endfacet
  facet normal 0 -1 -0
    outer loop
      vertex 121.4 120 15
      vertex 1.4 120 6
      vertex 121.4 120 6
    endloop
  endfacet
  facet normal 0 0 1
    outer loop
      vertex 121.4 120 6
      vertex 4.6 116.8 6
      vertex 121.4 116.8 6
    endloop
  endfacet
  facet normal -0 0 1
    outer loop
      vertex 1.4 120 6
      vertex 4.6 116.8 6
      vertex 121.4 120 6
    endloop
  endfacet
  facet normal 0 0 1
    outer loop
      vertex 1.4 0 6
      vertex 4.6 116.8 6
      vertex 1.4 120 6
    endloop
  endfacet
  facet normal 0 0 1
    outer loop
      vertex 4.6 116.8 6
      vertex 1.4 0 6
      vertex 4.6 0 6
    endloop
  endfacet
  facet normal 0 1 -0
    outer loop
      vertex 121.4 116.8 6
      vertex 4.6 116.8 15
      vertex 121.4 116.8 15
    endloop
  endfacet
  facet normal 0 1 0
    outer loop
      vertex 4.6 116.8 15
      vertex 121.4 116.8 6
      vertex 4.6 116.8 6
    endloop
  endfacet
endsolid OpenSCAD_Model
